<svg xmlns="http://www.w3.org/2000/svg" xmlns:xlink="http://www.w3.org/1999/xlink" viewBox="0 0 1695.83 596"><defs><style>.cls-1{fill:none;}.cls-2{fill:#f870a2;}.cls-3{fill:#b52c67;}.cls-4{fill:url(#New_Pattern_Swatch_22);}</style><pattern id="New_Pattern_Swatch_22" data-name="New Pattern Swatch 22" width="193.96" height="193.96" patternTransform="translate(-38.83 -11.98)" patternUnits="userSpaceOnUse" viewBox="0 0 193.96 193.96"><rect class="cls-1" width="193.96" height="193.96"/><path class="cls-2" d="M43.23,1.3A10.58,10.58,0,0,1,40.67,0h12A10.73,10.73,0,0,1,43.23,1.3ZM20.28,25.64a5,5,0,1,1,5,5A5,5,0,0,1,20.28,25.64ZM62.9,1.15c-.14-.42-.26-.8-.39-1.15h8C71.2,2.06,71.75,3,73,3.4c1.46.5,2.53-.12,5-1.86.7-.49,1.47-1,2.31-1.54h12c3.14,2.14,4.27,5.5,5.12,8.1.94,2.92,1.44,4.07,2.92,4.57A3.78,3.78,0,0,1,99.19,20a3.65,3.65,0,0,1-1.21-.2c-5.22-1.77-6.65-6.18-7.69-9.4-1-2.93-1.44-4.07-2.93-4.58s-2.53.12-5,1.86c-2.76,2-6.53,4.63-11.78,2.85S63.94,4.38,62.9,1.15ZM56.79,24.5c.87,2.94,1.33,4.1,2.8,4.64s2.53-.06,5-1.74c2.81-1.89,6.66-4.47,11.84-2.57s6.5,6.35,7.46,9.6c.87,2.94,1.33,4.1,2.8,4.64s2.54-.06,5-1.74c2.8-1.89,6.65-4.46,11.85-2.56s6.49,6.35,7.45,9.6c.87,2.94,1.34,4.1,2.81,4.64a3.77,3.77,0,0,1-1.3,7.32,3.72,3.72,0,0,1-1.3-.23c-5.17-1.89-6.49-6.34-7.45-9.59-.87-2.94-1.34-4.11-2.81-4.64s-2.54.05-5,1.73c-2.81,1.89-6.66,4.46-11.86,2.56s-6.49-6.34-7.45-9.59c-.87-2.94-1.33-4.1-2.8-4.64s-2.53.06-5,1.74C66,35.55,62.19,38.14,57,36.23s-6.49-6.34-7.44-9.59c-.87-2.94-1.34-4.1-2.8-4.64a3.78,3.78,0,1,1,2.6-7.09C54.52,16.8,55.83,21.25,56.79,24.5ZM1.63,97.58A2.76,2.76,0,0,0,0,97.84V90.07a10.35,10.35,0,0,1,2.77,0C8.22,90.94,10.39,95,12,98c1.44,2.71,2.12,3.75,3.67,4s2.49-.55,4.62-2.7c2.38-2.4,5.64-5.68,11.12-4.84s7.62,4.93,9.21,7.93c1.43,2.71,2.12,3.75,3.67,4a3.78,3.78,0,0,1-1.14,7.47C37.66,113,35.49,109,33.91,106c-1.43-2.71-2.12-3.76-3.68-4s-2.48.55-4.61,2.69c-2.38,2.4-5.65,5.68-11.12,4.85s-7.62-4.94-9.2-7.93C3.86,98.86,3.18,97.81,1.63,97.58Zm110.46-75a5,5,0,1,1,5,5A5,5,0,0,1,112.09,22.62ZM18.73,79.44a5,5,0,1,1-5-5A5,5,0,0,1,18.73,79.44ZM2.43,60.57A21.28,21.28,0,0,0,0,59.06V51.13a17,17,0,0,1,6.74,3.24c2.52,1.75,3.61,2.36,5.09,1.86s1.95-1.63,2.85-4.51c1-3.22,2.4-7.63,7.65-9.4s9,.89,11.82,2.82c2.52,1.75,3.62,2.37,5.1,1.87a3.78,3.78,0,1,1,2.41,7.16c-5.23,1.75-9-.89-11.82-2.82-2.52-1.76-3.61-2.37-5.1-1.87S22.8,51.11,21.89,54c-1,3.22-2.4,7.64-7.65,9.4S5.21,62.5,2.43,60.57ZM.5,15.82a2.57,2.57,0,0,0-.5.55V7.84a16.7,16.7,0,0,1,7.62.46c3,.69,4.23.86,5.43-.15a3.78,3.78,0,0,1,4.89,5.76c-4.2,3.57-8.72,2.52-12,1.75C2.93,15,1.69,14.81.5,15.82ZM113,125a5,5,0,1,1-5,5A5,5,0,0,1,113,125Zm40.6-28a5,5,0,1,1-5-5A5,5,0,0,1,153.64,97Zm-32-95.3A11.4,11.4,0,0,1,120.84,0h13.91c3.12.42,6.78,1.38,9.13,5.45,2.76,4.78.91,9-.44,12.15-1.22,2.81-1.61,4-.83,5.36a3.78,3.78,0,1,1-6.55,3.77c-2.75-4.78-.9-9,.45-12.14,1.22-2.82,1.61-4,.83-5.37s-2-1.58-5-1.9C129,7,124.39,6.48,121.62,1.68Zm33,20.06a3.77,3.77,0,0,1-.44-5.32c3.57-4.21,8.19-3.9,11.57-3.68,3,.2,4.3.16,5.31-1s.83-2.4.12-5.34A18.82,18.82,0,0,1,170.43,0h7.71c-.44,1-.22,2.26.34,4.59.8,3.29,1.89,7.79-1.69,12s-8.2,3.9-11.57,3.68c-3.06-.2-4.3-.16-5.32,1a3.77,3.77,0,0,1-5.32.43ZM62.11,65.21a5,5,0,1,1,5-5A5,5,0,0,1,62.11,65.21Zm71.34-16.83a5,5,0,1,1,5-5A5,5,0,0,1,133.45,48.38ZM58.8,74.8c5,2.23,6,6.76,6.8,10.06.67,3,1.06,4.18,2.48,4.82s2.54.11,5.15-1.4c2.93-1.7,6.94-4,12-1.77s6.06,6.76,6.8,10.07c.68,3,1.07,4.18,2.5,4.82A3.78,3.78,0,0,1,93,108.63a3.72,3.72,0,0,1-1.52-.33c-5-2.23-6.06-6.76-6.81-10.06-.67-3-1.06-4.19-2.49-4.82s-2.53-.12-5.15,1.4c-2.93,1.69-6.93,4-12,1.77S59,89.82,58.22,86.52c-.67-3-1.06-4.18-2.48-4.82s-2.53-.1-5.14,1.41c-2.93,1.69-6.94,4-12,1.77s-6-6.76-6.79-10.07c-.68-3-1.06-4.17-2.49-4.8a3.78,3.78,0,0,1,3.06-6.91c5,2.23,6.06,6.76,6.8,10.06.67,3,1.05,4.18,2.48,4.81s2.53.11,5.14-1.4C49.73,74.87,53.75,72.56,58.8,74.8Zm93.8,3a3.78,3.78,0,0,1-3.76,3.54h-.25c-5.51-.36-8-4.25-9.87-7.09-1.66-2.58-2.44-3.56-4-3.66s-2.42.76-4.35,3.09c-2.17,2.59-5.11,6.12-10.65,5.8s-8-4.26-9.87-7.1c-1.66-2.57-2.44-3.56-4-3.66s-2.41.77-4.34,3.09c-2.16,2.6-5.13,6.15-10.64,5.8s-8-4.25-9.86-7.09c-1.66-2.58-2.43-3.56-4-3.66a3.78,3.78,0,1,1,.48-7.54c5.5.36,8,4.25,9.86,7.1C89,69,89.79,70,91.34,70.05s2.42-.77,4.35-3.09c2.16-2.6,5.13-6.15,10.64-5.8s8,4.25,9.86,7.1c1.66,2.57,2.44,3.55,4,3.66s2.42-.77,4.36-3.1c2.16-2.59,5.08-6.15,10.65-5.79s8,4.25,9.87,7.09c1.66,2.58,2.44,3.56,4,3.66A3.77,3.77,0,0,1,152.6,77.79ZM115.08,110c-4.7-2.89-5.1-7.51-5.39-10.89-.26-3-.49-4.28-1.82-5.1a3.78,3.78,0,1,1,4-6.43c4.7,2.88,5.1,7.51,5.39,10.88.26,3,.49,4.28,1.82,5.1s2.5.45,5.29-.7c3.13-1.28,7.41-3,12.13-.14s5.1,7.51,5.39,10.88c.27,3.06.49,4.29,1.83,5.11s2.51.46,5.3-.69c3.13-1.29,7.41-3,12.14-.14s5.1,7.51,5.4,10.89c.26,3.05.49,4.28,1.83,5.11a3.78,3.78,0,0,1-4,6.43c-4.7-2.89-5.1-7.51-5.4-10.89-.27-3.05-.49-4.28-1.83-5.11s-2.51-.45-5.31.7c-3.13,1.28-7.41,3-12.13.14s-5.1-7.52-5.39-10.89c-.27-3.06-.5-4.29-1.83-5.11s-2.49-.45-5.29.7C124.08,111.12,119.8,112.88,115.08,110Zm74.49,79a3.76,3.76,0,0,1-5.23,1.07c-4.6-3-4.86-7.67-5.05-11.05-.17-3.07-.35-4.31-1.67-5.17s-2.48-.54-5.31.52c-3.17,1.18-7.5,2.79-12.13-.26s-4.85-7.67-5-11c-.17-3.06-.35-4.3-1.66-5.17s-2.48-.53-5.3.53c-3.17,1.18-7.5,2.81-12.12-.25s-4.85-7.67-5-11c-.16-3.06-.35-4.3-1.65-5.16a3.78,3.78,0,0,1,4.16-6.31c4.6,3,4.85,7.67,5,11.06.17,3.06.35,4.29,1.66,5.16s2.47.53,5.3-.53c3.16-1.18,7.49-2.8,12.12.25s4.85,7.67,5,11c.16,3.06.35,4.3,1.66,5.17s2.49.54,5.32-.52c3.16-1.18,7.5-2.81,12.12.25s4.86,7.68,5.05,11.06c.17,3.06.35,4.3,1.66,5.17A3.77,3.77,0,0,1,189.57,189Zm-11.41-1.1a3.79,3.79,0,0,1,.44,5.33,2.67,2.67,0,0,0-.46.74h-7.71a9.93,9.93,0,0,1,2.41-5.63A3.77,3.77,0,0,1,178.16,187.89Zm10.5-56.09a21.54,21.54,0,0,1,5.3,1.33v29.71a10.08,10.08,0,0,1-3.65-4c-2.53-4.9-.48-9.07,1-12.11,1.35-2.76,1.8-3.93,1.08-5.32s-1.9-1.66-4.88-2.12c-3.34-.51-7.92-1.21-10.46-6.12s-.48-9.07,1-12.11c1.35-2.75,1.8-3.92,1.08-5.31a3.77,3.77,0,1,1,6.71-3.46c2.53,4.9.48,9.06-1,12.1-1.35,2.75-1.8,3.93-1.08,5.31S185.68,131.35,188.66,131.8Zm-38.32,47.74a5,5,0,1,1-5-5A5,5,0,0,1,150.34,179.54ZM185.62,95c1.94-2,4.5-4.47,8.34-4.88v7.77a11.52,11.52,0,0,0-3,2.43c-2.38,2.4-5.64,5.69-11.11,4.85s-7.62-4.93-9.2-7.93c-1.43-2.71-2.12-3.75-3.66-4a3.78,3.78,0,1,1,1.14-7.47c5.45.84,7.62,4.94,9.2,7.93,1.43,2.71,2.11,3.76,3.66,4S183.5,97.1,185.62,95ZM194,7.84v8.53c-.67.93-.66,2.19-.47,4.68.26,3.37.61,8-3.61,11.57s-8.72,2.52-12,1.75c-3-.69-4.22-.86-5.41.15s-1.19,2.23-1,5.23c.26,3.36.61,8-3.6,11.56s-8.71,2.52-12,1.75c-3-.7-4.23-.86-5.41.15a3.78,3.78,0,0,1-4.9-5.76c4.2-3.57,8.72-2.52,12-1.75,3,.7,4.22.86,5.41-.15s1.19-2.22,1-5.22c-.26-3.37-.62-8,3.6-11.56s8.71-2.52,12-1.76c3,.69,4.23.86,5.42-.15s1.2-2.23,1-5.23c-.26-3.37-.61-8,3.61-11.57A10.1,10.1,0,0,1,194,7.84ZM133.15,193.77c.51,0,1,.12,1.6.19H120.84c-1.53-4.09,0-7.72,1.23-10.46s1.61-4,.83-5.36-2-1.58-5-1.9c-3.36-.35-8-.83-10.73-5.63s-.9-9,.45-12.14c1.22-2.81,1.61-4,.83-5.35a3.78,3.78,0,1,1,6.55-3.77c2.75,4.77.9,9-.45,12.14-1.23,2.81-1.62,4-.84,5.35s2,1.58,5,1.89c3.36.35,8,.84,10.73,5.63s.9,9-.45,12.15c-1.22,2.81-1.61,4-.83,5.36S130.15,193.45,133.15,193.77ZM194,51.13v7.93a3.24,3.24,0,0,0-2.67-.36c-1.46.49-1.94,1.63-2.84,4.5-1,3.23-2.39,7.64-7.64,9.41a10.65,10.65,0,0,1-3.38.57c-3.54,0-6.29-1.91-8.43-3.4-2.51-1.75-3.6-2.37-5.08-1.87a3.78,3.78,0,1,1-2.41-7.16c5.22-1.76,9,.89,11.81,2.83,2.51,1.75,3.61,2.37,5.08,1.86s1.94-1.62,2.84-4.5c1-3.22,2.4-7.63,7.64-9.4A10.09,10.09,0,0,1,194,51.13Zm-156.27,77a5,5,0,1,1-5-5A5,5,0,0,1,37.69,128.09ZM18.41,163.62c2.53,4.9.48,9.07-1,12.11-1.35,2.76-1.79,3.93-1.08,5.32a3.78,3.78,0,0,1-1.62,5.09,3.71,3.71,0,0,1-1.73.42,3.77,3.77,0,0,1-3.36-2c-2.53-4.9-.48-9.07,1-12.12,1.35-2.75,1.79-3.92,1.07-5.31s-1.9-1.68-4.88-2.14A17.24,17.24,0,0,1,0,162.84V133.13a10,10,0,0,1,5.15,4.8c2.53,4.9.49,9.06-1,12.11-1.35,2.75-1.79,3.92-1.08,5.31S5,157,8,157.48C11.29,158,15.87,158.7,18.41,163.62Zm12.82-1c-3-.51-4.27-.59-5.39.49a3.75,3.75,0,0,1-2.62,1.06,3.78,3.78,0,0,1-2.63-6.49c4-3.83,8.54-3.07,11.88-2.52,3,.51,4.26.59,5.39-.49s1.06-2.31.64-5.3c-.46-3.35-1.1-7.93,2.88-11.77s8.54-3.08,11.89-2.52c3,.5,4.26.58,5.39-.5s1.07-2.32.65-5.31c-.46-3.35-1.09-7.94,2.89-11.78s8.55-3.08,11.89-2.53c3,.51,4.27.59,5.4-.5a3.78,3.78,0,0,1,5.25,5.44c-4,3.83-8.54,3.07-11.89,2.52-3-.5-4.27-.59-5.4.5s-1.07,2.31-.65,5.31c.46,3.35,1.09,7.93-2.89,11.78S55.37,143.1,52,142.54c-3-.51-4.27-.59-5.4.5s-1.06,2.3-.64,5.3c.46,3.35,1.1,7.93-2.88,11.77S34.57,163.18,31.23,162.63ZM8.66,113.92a5,5,0,1,1-5,5A5,5,0,0,1,8.66,113.92Zm95.79,65.62a5,5,0,1,1-5-5A5,5,0,0,1,104.45,179.54ZM57.07,157.82a5,5,0,1,1-5,5A5,5,0,0,1,57.07,157.82Zm13,35c.14.43.26.81.39,1.17h-8c-.72-2.07-1.27-3-2.53-3.42-1.46-.49-2.53.12-5,1.86-.71.51-1.49,1-2.34,1.56h-12c-3.16-2.13-4.28-5.5-5.13-8.11-.94-2.91-1.43-4.06-2.91-4.56a3.78,3.78,0,1,1,2.42-7.16c5.22,1.77,6.65,6.18,7.68,9.4,1,2.92,1.44,4.07,2.92,4.57s2.52-.12,5-1.86c2.75-2,6.53-4.62,11.77-2.85S69.05,189.57,70.09,192.79Zm19.69-.13a10.93,10.93,0,0,1,2.58,1.3h-12A10.72,10.72,0,0,1,89.78,192.66ZM79.25,172.8c-2.91.94-4.06,1.43-4.57,2.92a3.77,3.77,0,0,1-3.57,2.56,3.71,3.71,0,0,1-1.22-.2,3.78,3.78,0,0,1-2.36-4.79c1.77-5.22,6.19-6.64,9.41-7.68,2.91-.94,4.07-1.43,4.57-2.91s-.12-2.54-1.85-5c-2-2.76-4.61-6.55-2.84-11.79s6.19-6.64,9.41-7.67c2.92-.94,4.06-1.43,4.57-2.91A3.78,3.78,0,1,1,98,137.75c-1.77,5.22-6.18,6.64-9.41,7.67-2.91.94-4.06,1.43-4.56,2.91s.11,2.54,1.85,5c2,2.76,4.61,6.54,2.83,11.78S82.48,171.77,79.25,172.8Z"/></pattern></defs><g id="OBJECTS"><rect class="cls-3" width="1695.83" height="596"/><rect class="cls-4" width="1695.83" height="596"/></g></svg>