<?xml version="1.0" encoding="utf-8"?>
<!-- Generator: Adobe Illustrator 23.0.5, SVG Export Plug-In . SVG Version: 6.00 Build 0)  -->
<svg version="1.1" id="Capa_1" xmlns="http://www.w3.org/2000/svg" xmlns:xlink="http://www.w3.org/1999/xlink" x="0px" y="0px"
	 viewBox="0 0 800 800" style="enable-background:new 0 0 800 800;" xml:space="preserve">
<style type="text/css">
	.st0{fill:#4B97D1;}
	.st1{fill:#00AFFE;}
</style>
<path class="st0" d="M280.7,687.3c58.5,30.7,87.8,46.1,119.3,46.1V400L87.9,235.8c-0.5,0.7-0.9,1.5-1.4,2.2
	c-19.9,33.8-19.9,75.9-19.9,160.1v3.9c0,84.2,0,126.2,19.9,160.1c19.9,33.8,55.8,52.6,127.5,90.3L280.7,687.3z"/>
<path class="st1" d="M585.9,147.7l-66.7-35C460.7,82,431.5,66.7,400,66.7S339.3,82,280.7,112.7l-66.7,35
	c-70.1,36.8-106,55.6-126.1,88L400,400l312.1-164.2C691.9,203.3,656,184.5,585.9,147.7z"/>
<path class="st1" d="M713.4,238c-0.4-0.8-0.9-1.5-1.4-2.2L400,400v333.3c31.5,0,60.7-15.4,119.3-46.1l66.7-35
	c71.7-37.6,107.6-56.5,127.5-90.3c19.9-33.8,19.9-75.9,19.9-160.1v-3.9C733.3,313.9,733.3,271.8,713.4,238z"/>
<path class="st0" d="M210.8,149.5c1.1-0.6,2.2-1.2,3.3-1.7l49.8-26.1l303.4,166.8l134.1-67.1c4.6,5.2,8.6,10.7,12.1,16.6
	c5,8.5,8.7,17.5,11.5,27.5l-133.3,66.6v101.2c0,13.8-11.2,25-25,25s-25-11.2-25-25v-76.2L425,415.5v314.7c-8.6,2.1-16.7,3.2-25,3.2
	c-8.3,0-16.4-1.1-25-3.2V415.5l-299.9-150c2.8-10,6.5-19,11.5-27.5c3.5-5.9,7.5-11.4,12.1-16.6L400,372.1l112.9-56.4L210.8,149.5z"
	/>
</svg>
