<?xml version="1.0" encoding="utf-8"?>
<!-- Generator: Adobe Illustrator 23.0.5, SVG Export Plug-In . SVG Version: 6.00 Build 0)  -->
<svg version="1.1" id="Capa_1" xmlns="http://www.w3.org/2000/svg" xmlns:xlink="http://www.w3.org/1999/xlink" x="0px" y="0px"
	 viewBox="0 0 800 800" style="enable-background:new 0 0 800 800;" xml:space="preserve">
<style type="text/css">
	.st0{fill:#4B97D1;}
	.st1{fill:#00AFFE;}
</style>
<path class="st0" d="M149.5,688.8c29.3,15.4,43.9,23,59.6,23V545.2l-156-82.1c-0.2,0.4-0.5,0.7-0.7,1.1c-10,16.9-10,37.9-10,80v2
	c0,42.1,0,63.1,10,80c10,16.9,27.9,26.3,63.7,45.1L149.5,688.8z"/>
<path class="st1" d="M302.1,419.1l-33.3-17.5c-29.3-15.4-43.9-23-59.6-23s-30.4,7.7-59.6,23l-33.3,17.5c-35.1,18.4-53,27.8-63.1,44
	l156,82.1l156-82.1C355.1,446.9,337.2,437.5,302.1,419.1z"/>
<path class="st1" d="M365.9,464.2c-0.2-0.4-0.4-0.7-0.7-1.1l-156,82.1v166.7c15.7,0,30.4-7.7,59.6-23l33.3-17.5
	c35.9-18.8,53.8-28.2,63.7-45.1c10-16.9,10-38,10-80v-2C375.8,502.1,375.8,481.1,365.9,464.2z"/>
<path class="st0" d="M114.6,419.9c0.5-0.3,1.1-0.6,1.7-0.9l24.9-13.1l151.7,83.4l67.1-33.5c2.3,2.6,4.3,5.3,6,8.3
	c2.5,4.2,4.4,8.7,5.8,13.7L305,511.3v50.6c0,6.9-5.6,12.5-12.5,12.5c-6.9,0-12.5-5.6-12.5-12.5v-38.1l-58.3,29.2v157.3
	c-4.3,1.1-8.4,1.6-12.5,1.6c-4.1,0-8.2-0.5-12.5-1.6V552.9l-150-75c1.4-5,3.3-9.5,5.8-13.7c1.7-3,3.7-5.7,6-8.3l150.7,75.3
	l56.4-28.2L114.6,419.9z"/>
<path class="st0" d="M531.2,688.8c29.3,15.4,43.9,23,59.6,23V545.2l-156-82.1c-0.2,0.4-0.5,0.7-0.7,1.1c-10,16.9-10,37.9-10,80v2
	c0,42.1,0,63.1,10,80c10,16.9,27.9,26.3,63.7,45.1L531.2,688.8z"/>
<path class="st1" d="M683.8,419l-33.3-17.5c-29.3-15.4-43.9-23-59.6-23c-15.7,0-30.4,7.7-59.6,23L497.9,419
	c-35.1,18.4-53,27.8-63.1,44l156,82.1l156-82.1C736.8,446.9,718.8,437.5,683.8,419z"/>
<path class="st1" d="M747.5,464.2c-0.2-0.4-0.4-0.7-0.7-1.1l-156,82.1v166.7c15.7,0,30.4-7.7,59.6-23l33.3-17.5
	c35.9-18.8,53.8-28.2,63.7-45.1c10-16.9,10-38,10-80v-2C757.5,502.1,757.5,481.1,747.5,464.2z"/>
<path class="st0" d="M496.2,419.9c0.5-0.3,1.1-0.6,1.7-0.9l24.9-13.1l151.7,83.4l67.1-33.5c2.3,2.6,4.3,5.3,6,8.3
	c2.5,4.2,4.4,8.7,5.8,13.7l-66.6,33.3v50.6c0,6.9-5.6,12.5-12.5,12.5s-12.5-5.6-12.5-12.5v-38.1l-58.3,29.2v157.3
	c-4.3,1.1-8.4,1.6-12.5,1.6c-4.1,0-8.2-0.5-12.5-1.6V552.9l-150-75c1.4-5,3.3-9.5,5.8-13.7c1.7-3,3.7-5.7,6-8.3l150.7,75.3
	l56.4-28.2L496.2,419.9z"/>
<path class="st0" d="M340.4,383c29.3,15.4,43.9,23,59.6,23V239.3l-156-82.1c-0.2,0.4-0.5,0.7-0.7,1.1c-10,16.9-10,37.9-10,80v2
	c0,42.1,0,63.1,10,80c10,16.9,27.9,26.3,63.7,45.1L340.4,383z"/>
<path class="st1" d="M493,113.2l-33.3-17.5c-29.3-15.4-43.9-23-59.6-23s-30.4,7.7-59.6,23L307,113.2c-35.1,18.4-53,27.8-63.1,44
	l156,82.1l156-82.1C545.9,141,528,131.6,493,113.2z"/>
<path class="st1" d="M556.7,158.3c-0.2-0.4-0.4-0.7-0.7-1.1l-156,82.1V406c15.7,0,30.4-7.7,59.6-23l33.3-17.5
	c35.9-18.8,53.8-28.2,63.7-45.1c10-16.9,10-38,10-80v-2C566.7,196.3,566.7,175.2,556.7,158.3z"/>
<path class="st0" d="M305.4,114.1c0.5-0.3,1.1-0.6,1.7-0.9l24.9-13.1l151.7,83.4l67.1-33.5c2.3,2.6,4.3,5.3,6,8.3
	c2.5,4.2,4.4,8.7,5.8,13.7l-66.6,33.3V256c0,6.9-5.6,12.5-12.5,12.5c-6.9,0-12.5-5.6-12.5-12.5v-38.1l-58.3,29.2v157.3
	c-4.3,1.1-8.4,1.6-12.5,1.6c-4.1,0-8.2-0.5-12.5-1.6V247.1l-150-75c1.4-5,3.3-9.5,5.8-13.7c1.7-3,3.7-5.7,6-8.3L400,225.4l56.4-28.2
	L305.4,114.1z"/>
</svg>
