<?xml version="1.0" encoding="utf-8"?>
<!-- Generator: Adobe Illustrator 25.4.1, SVG Export Plug-In . SVG Version: 6.00 Build 0)  -->
<svg version="1.1" id="Capa_1" xmlns="http://www.w3.org/2000/svg" xmlns:xlink="http://www.w3.org/1999/xlink" x="0px" y="0px"
	 viewBox="0 0 800 800" style="enable-background:new 0 0 800 800;" xml:space="preserve">
<style type="text/css">
	.st0{fill-rule:evenodd;clip-rule:evenodd;fill:#D26828;}
	.st1{fill-rule:evenodd;clip-rule:evenodd;fill:#E57125;}
	.st2{fill-rule:evenodd;clip-rule:evenodd;fill:url(#SVGID_1_);}
	.st3{fill-rule:evenodd;clip-rule:evenodd;fill:url(#SVGID_00000150090727947705622350000010243647780982667394_);}
	.st4{fill-rule:evenodd;clip-rule:evenodd;fill:url(#SVGID_00000104685189535261157050000006322003361019646628_);}
	.st5{fill-rule:evenodd;clip-rule:evenodd;fill:#A96728;}
	.st6{fill-rule:evenodd;clip-rule:evenodd;fill:#EB7523;}
	.st7{fill-rule:evenodd;clip-rule:evenodd;fill:#DA6D26;}
	.st8{fill-rule:evenodd;clip-rule:evenodd;fill:#CA5828;}
	.st9{fill-rule:evenodd;clip-rule:evenodd;fill:#ED7F22;}
	.st10{fill-rule:evenodd;clip-rule:evenodd;fill:#231815;}
	.st11{fill-rule:evenodd;clip-rule:evenodd;fill:#943C22;}
</style>
<g>
	<g>
		<g>
			<path class="st0" d="M306.4,164.5c49.2-24.2,93.6-29,163.9-6.9c151.6,47.8,175.9,519.7-82.9,526.2
				C154.1,689.7,257.2,188.7,306.4,164.5z"/>
			<path class="st1" d="M466,204.2C609.2,60.4,824.2,362,613.1,651.5c-109.6,84.4-178.4,9.6-178.4,9.6S449.3,217.7,466,204.2z"/>
			<path class="st1" d="M349,203.8c0,0-61.4-51.5-153-16.8c-80.2,30.3-153.1,279.6,16.4,473.7c121.2,76.5,191.4-3,191.4-3
				S367.4,216.1,349,203.8z"/>
			<g>
				<linearGradient id="SVGID_1_" gradientUnits="userSpaceOnUse" x1="812.2418" y1="84.6119" x2="-46.8382" y2="259.5841">
					<stop  offset="0" style="stop-color:#A96728"/>
					<stop  offset="1.000000e-02" style="stop-color:#A96728"/>
					<stop  offset="1" style="stop-color:#4B2915"/>
				</linearGradient>
				<path class="st2" d="M484.3,223.7C458.4,202,464,180,458.4,150.9c-8.9-46-37.8-76.4-93.3-75.7c-40.9,0.5-92.6,21.8-90.5,64.8
					c1.1,24.1,32.3,34.8,58.6,25.9c30.7-10.3,19.3-49.8-14.2-43c-7.4,6.9-5.8,17.4-0.5,20.8c6.6-4.3,22,3.3,11.1,8.6
					c-9,4.3-27.6,2.8-31.6-5.4c-8.1-16.8,11.8-35.6,32.7-42c39.3-12,63.7,23.3,35.2,55.8c-16,18.2-33.5,62.3-16.2,87.5
					c15.8,23.1,46,19.7,72.7,17.7c28.4-2.1,56-13.4,80.7-26L484.3,223.7z"/>
				
					<linearGradient id="SVGID_00000091015396094758807550000001271606767755077543_" gradientUnits="userSpaceOnUse" x1="-1721.6301" y1="22227.8125" x2="2512.187" y2="-21840.4121">
					<stop  offset="0" style="stop-color:#A96728"/>
					<stop  offset="1.000000e-02" style="stop-color:#A96728"/>
					<stop  offset="1" style="stop-color:#4B2915"/>
				</linearGradient>
				<path style="fill-rule:evenodd;clip-rule:evenodd;fill:url(#SVGID_00000091015396094758807550000001271606767755077543_);" d="
					M399.4,116.7c19.5,21.4,28.5,56.5,28.5,56.5s-1.5-35-3.9-47.3c-2.4-12.3-6.5-18.3-6.5-18.3s35.4,25.4,37.9,87.9
					c0.8,20.4-1,36-1.3,33.9c-0.3-2.2-4.7-45.5-9.9-55.6c-5.2-10.1-6.2-13.3-6.2-13.3s-2.7,52.8-3,50.7c-0.3-2.1-12.5-36-23.9-61.5
					c-21.2-47.3-70.6-56.2-69-55.9C343.9,94,379.9,95.2,399.4,116.7z"/>
				
					<linearGradient id="SVGID_00000075872121780085646400000017978665062359722671_" gradientUnits="userSpaceOnUse" x1="320.296" y1="2636.5903" x2="447.0599" y2="-2244.04">
					<stop  offset="0" style="stop-color:#A96728"/>
					<stop  offset="1.000000e-02" style="stop-color:#A96728"/>
					<stop  offset="1" style="stop-color:#4B2915"/>
				</linearGradient>
				<path style="fill-rule:evenodd;clip-rule:evenodd;fill:url(#SVGID_00000075872121780085646400000017978665062359722671_);" d="
					M408.7,157.2c14.4,36.7,11.7,71.3,12.2,67.9c0.5-3.4-7.8-41.7-15.5-54.7c-7.7-13-9.5-14.4-9.5-14.4s3.6,20.9,0.3,44.6
					c-3.3,23.7-11.5,36.2-10.7,34.4c0.8-1.8,4.5-62,1.6-74.2c-2.9-12.2-2.9-12.2-2.9-12.2s0.6,7.6-10.8,30.5
					c-11.4,22.9-30.2,30.7-27.8,27.2c32.7-46.7,44.4-73.5,27.3-97.7C373,108.8,394.2,120.6,408.7,157.2z"/>
				<path class="st5" d="M284.1,124.6c0,0,9-48.7,90.6-46.1c72.9,2.3,80.6,78.7,80.6,78.8c-2.4-23.7-27.4-50.9-47.9-57.8
					c5.2,9.4,10.7,20.9,10.5,32c0.1-5.6-12.6-17.2-16.3-20.6c-7-6.4-15.3-11.1-23.9-14.8c-16.5-7.1-31.9-7.5-49.1-2.1
					C312.3,99.1,293.7,109,284.1,124.6z"/>
			</g>
			<path class="st6" d="M536.7,235.5c0,0,19.7-61.1,111-18.3c60,28.1,171.2,281.4,13.8,447.7c-107.3,93.2-135.4,9-135.4,9
				S523.3,248.2,536.7,235.5z"/>
			<path class="st7" d="M614.3,360.7l0-0.1c-3.1-17.9-7-36.8-13.1-53.9c-6.5-18-16-35.3-25.1-52c45.3,50.3,88.4,100.9,54.9,374
				c-0.3,10.5-2.2,21.9,3.3,31.4c107.8-90.3,106.3-227.8,107.2-232.6c5.2,100.1-12.5,157.8-72.8,233.6
				c-32.5,41-79.2,55.5-105.2,55.5c-5.8,0-16.3-3.6-21.3-0.6c36.5-14.9,70.6-137.3,77.1-174.2c4.9-27.9,4.1-57.6,3.1-85.8
				C621.3,424.3,619.8,392,614.3,360.7z"/>
			<path class="st8" d="M551.6,214.8c-3.1,175.2,10.2,492.5-14.5,506.9C621.3,724.8,702.4,330.2,551.6,214.8z"/>
			<path class="st6" d="M446.9,240.9c0,0,31.6-57.9,101.6-27.6c61.2,26.5,138,280.4,18.9,491.1c-87.6,86.3-143.4,8.5-143.4,8.5
				S433.6,254.7,446.9,240.9z"/>
			<path class="st7" d="M499.3,324.5c51.6,245.2,22.8,371.9,40.1,370c48.8-5.2,66.4-90,72.7-99.4c-5.8,36.2-23.8,77.7-44.6,109.3
				c-17.1,30.1-58.6,40.4-90.2,34.3c3.4-4.8,5.1-10.1,7.2-15.5c6.2-15.6,11.2-31.4,14.6-47.8c8.4-41.3,12.3-83.7,15.8-125.5
				C517.9,514.1,503,360.2,499.3,324.5z"/>
			<path class="st8" d="M479.1,744.5c0,0,37.2-38.1,46.6-175.9c9.4-137.3-18.3-289.4-75.8-332.4c-0.3,111.5,25.5,497.8,9,505.6
				C461.7,741.8,479.1,744.5,479.1,744.5z"/>
			<path class="st9" d="M629.9,466.9C601.2,306.7,566.4,221.3,480.2,211C613.5,159.4,632.8,410.8,629.9,466.9z"/>
			<path class="st6" d="M247.4,248.9c0,0-4.2-51.2-86.2-38.1c-34.2,5.4-62.1,37.9-79.2,85.7c-1,2.1-2,4.2-2.9,6.5
				c-22.2,56.2-31.2,133-22.9,191.7c4.9,34.3,9.6,63.5,22,95.9c12.4,32.3,31.5,64.2,59,92.2c16.8,17.1,46.3,37.4,88.2,43.2
				c19.8,2.8,54.8,3.2,76-4.4c-3.4-1.6-23.7-22.4-32.2-30.4c12.4-8.5,20-16.4,20-16.4S261.3,260.7,247.4,248.9z"/>
			<path class="st7" d="M53.1,442.9c2.4,90.6,20.1,174.5,83.9,239.8c16.7,17.1,46.2,37.5,88.1,43.4c20.3,2.9,40.7,2.8,60.9-1.3
				c-11.5-4.3-21.2-29.3-26.6-40.7C150.5,685.4,89.8,636.4,53.1,442.9z"/>
			<path class="st8" d="M255.4,716.5c-88.8-86.4-125.7-387.2-26.1-496.4c-16.5,183.7,21.5,481.2,39.8,485
				C266.4,705.8,255.4,716.5,255.4,716.5z"/>
			<path class="st6" d="M352.3,236.9c0,0-38.3-54.3-102.2-32.8c-63.9,21.5-125.6,301.5,2.7,503.7c64.1,100.5,143.5-1.3,143.5-1.3
				S366.2,249.7,352.3,236.9z"/>
			<path class="st7" d="M177.4,453.6c-3,89,26.4,183.4,71.7,254.4c13.7,21.4,41.9,47.6,69.8,45.8c13.4-0.8,44.8-1.7,54.7-10.2
				c4.9-4.2,3.5-3.6,8.5-7.6c4.2-3.3-5.5-16.1-1.6-19.8c-18.7,0.8-29.2-17.4-40.3-29.3C310,654.4,290.1,464.2,279,422.2
				c-21.2,100.8-6.8,192-15,221.8c-3.9,14-14.7,19.6-24.5,9.3C206.6,618.9,182.2,504.2,177.4,453.6z"/>
			<path class="st8" d="M349.1,232.9c5.3,111.3,2.8,509,19.7,515.7C234.3,753.1,244.9,305.9,349.1,232.9z"/>
			<path class="st6" d="M277.8,504c5.9-150,28.5-282.9,113.4-286.6c96.4-4.2,123.9,123.9,129.6,273.8
				c8.8,233.5-55.9,269.1-117.1,268.2C326.9,758.5,270.8,683.6,277.8,504z"/>
			<path class="st7" d="M349.1,232.9c-136.3,328,88.1,617.8,166.5,399C496.7,742.1,444.5,759.1,406.2,760
				C230.8,772.6,247.3,325.5,349.1,232.9z"/>
			<path class="st9" d="M364.3,250.1c0,0,34.3-47.9,80.8-5.7c40.5,36.8,74.9,139.7,59.4,261C484.4,323.8,426.2,231.5,364.3,250.1z"
				/>
			<path class="st9" d="M715.9,384c-40.1-109.5-82.2-145.8-101.5-155c-13.5-24.8,31.2-15.3,43.5,0.4
				C716.2,299.9,728.1,386,715.9,384z"/>
			<path class="st9" d="M190.1,476.6c7.9-166.2,51.3-258.7,138.3-247C188.1,150.2,185.1,424.7,190.1,476.6z"/>
			<path class="st9" d="M183.3,241.4c3.1-15.8-14.7-10.8-31.5-2.6c-50.1,30.6-55.3,165.8-53.1,165.6
				C97.6,409.6,133.9,261.6,183.3,241.4z"/>
		</g>
		<g>
			<path class="st10" d="M247.9,328.6c47.8-2.2,87.8,24.5,89.5,59.7c0.5,11-2.8,21.6-9.1,31c-11,19.6-165.2,3.4-163.2-16.4
				c-0.4-2.1-0.6-4.2-0.7-6.4C162.8,361.3,200.2,330.9,247.9,328.6z"/>
			<path class="st10" d="M535.6,315.1c-47.8,2.2-85.2,32.6-83.5,67.8c0.5,11,4.8,21.3,12,30c12.8,18.4,164.8-12.1,160.9-31.7
				c0.2-2.1,0.2-4.3,0.1-6.5C623.4,339.6,583.4,312.8,535.6,315.1z"/>
		</g>
		<polygon class="st10" points="391.6,412.9 348.4,504.1 441.4,502.6 		"/>
		<path class="st10" d="M306.2,536.1c-18.6-3.1-35.6-8-51.1-14.1c-3,18.1-6.1,37.7-6,39.3c0.2,3-37-17.7-37-17.7l5.5-40
			c-62.7-37.7-89.1-91.2-89.1-90.7c-1.7,65.3,10.8,164.3,78.4,215.1l9.9-21.2c0,0,46.5,20.1,49.6,21.4c1.8,0.8-4.1,14.5-9,25.2
			c19.6,6.5,43.1,11.5,71.2,14.7l4.1-31.6c0,0,57.6,2.7,60.6,3.1c2.1,0.3,2.1,19.3,2.4,32.5c4.2,0.1,8.4,0.1,12.7,0.1
			c34-3.2,63.1-7.7,88.1-13.5L486.2,606c0,0,51-11.3,55.5-10.5c3.1,0.5,4.7,28.7,5.6,47.8c133.4-52.6,119.9-154.9,116.1-255.6
			c0-0.5-23.7,58.9-86.8,102.8l21.4,38.5l-53.6,19.4l-10.1-34.2c-22.6,9.9-48.5,17.3-78.3,20.5l-0.1,0c4,15.1,8.8,32.6,9.7,34.2
			c1.6,2.9-58.4,11.2-58.4,11.2s-0.7-23.7-1.4-41.7c-18.2,0.9-36.6,1.4-51.3,1.5c-1.4,16-2.8,34.7-2.5,36.9
			c0.7,3.9-48.3-5.2-48.3-5.2S305,552.6,306.2,536.1z"/>
		<path class="st11" d="M227.3,406.8c-10.9-1.5-21.4-3.3-30.4-5.4c-2.3-0.5-4.5-1.1-6.6-1.6c-4.2-1.1-8.1-2.3-11.4-3.6
			c-3.1-1.2-5.8-2.4-7.9-3.6c-3.8-2.2-5.8-4.6-5.6-7c0-0.2-0.1-0.3-0.1-0.5c-0.7,3.7-1,7.5-0.8,11.4c0.1,2.2,0.4,4.3,0.7,6.4
			c-0.2,2.3,1.6,4.5,4.9,6.6c2.1,1.3,4.8,2.6,7.9,3.8c3.3,1.3,7.1,2.5,11.3,3.6c1.7,0.5,3.5,0.9,5.4,1.4c9.8,2.4,21.3,4.4,33.4,6
			c4.3,0.6,8.7,1.1,13.1,1.6c9.7,1,19.6,1.7,29,2.1c1.4,0.1,2.7,0.1,4,0.1c1.2,0,2.4,0.1,3.5,0.1c0.9,0,1.7,0,2.6,0
			c0.7,0,1.5,0,2.2,0c8.7,0,16.8-0.3,23.7-1.1c11.6-1.3,19.8-3.8,22-7.8c6.3-9.4,9.6-19.9,9.1-31c-0.1-2-0.3-4-0.7-5.9
			c-1.3,6.9-4.2,13.5-8.3,19.6c-2.2,3.9-10.1,6.4-21.4,7.7c-6.6,0.8-14.4,1.1-22.8,1.2c-1.4,0-2.9,0-4.3,0c-1.2,0-2.4,0-3.6-0.1
			c-2.5-0.1-5.1-0.1-7.8-0.3c-8.7-0.4-17.7-1-26.6-2C237.1,408,232.1,407.4,227.3,406.8z"/>
		<path class="st11" d="M455.1,397.5c2.1,5.5,5.1,10.7,9,15.4c2.9,4.2,12.9,5.8,26.6,5.7c5.1-0.1,10.7-0.4,16.7-0.9
			c0.2,0,0.4,0,0.6-0.1c2.5-0.2,5.1-0.5,7.7-0.8c0.1,0,0.2,0,0.3,0c1.7-0.2,3.5-0.4,5.3-0.6c1.8-0.2,3.7-0.5,5.6-0.8
			c8.2-1.2,16.7-2.6,25-4.3c11-2.2,21.9-4.8,31.7-7.6c12.6-3.6,23.6-7.6,31-11.5c1.4-0.7,2.6-1.4,3.8-2.2c3.4-2.2,5.7-4.4,6.4-6.4
			c0-0.1,0.1-0.2,0.1-0.3c0.2-0.6,0.2-1.3,0.1-1.9c0.2-2.1,0.2-4.3,0.1-6.5c-0.1-2.5-0.4-4.9-0.9-7.2c-0.4,0.5-0.8,1.1-1.4,1.6
			c-0.1,0.1-0.2,0.1-0.2,0.2c-1.5,1.4-3.6,2.9-6.2,4.4c-1.7,0.9-3.5,1.9-5.6,2.8c-7.3,3.3-16.9,6.7-27.8,9.7
			c-9.7,2.7-20.4,5.3-31.3,7.5c-8.2,1.6-16.5,3.1-24.6,4.3c-2.8,0.4-5.5,0.8-8.3,1.1c-1.7,0.2-3.4,0.4-5.1,0.6c-0.1,0-0.3,0-0.4,0
			c-2.3,0.2-4.6,0.5-6.9,0.7c-0.2,0-0.4,0-0.6,0c-7,0.6-13.5,0.8-19.2,0.7c-11.6-0.2-19.9-1.9-22.5-5.7c-4.6-5.6-8-11.8-10-18.5
			c-0.5-1.8-1-3.7-1.3-5.6c-0.7,3.7-1,7.5-0.8,11.4C452.3,388,453.4,392.9,455.1,397.5z"/>
		<path class="st11" d="M200.3,604.1c-2.3-1.9-4.4-3.8-6.6-5.7c-42.7-39.5-59.6-100.2-64.8-153.9c2.9,60.7,19.7,135.9,73.2,179.7
			c1.6,1.3,3.2,2.5,4.8,3.8l1-2.3l2.2-4.8l4.8-10.2l1.8-3.9l30.5,13.2l19.1,8.3c3.7-8.4,4.3-16.9,2.9-17.5l-24.9-11.2l-29-12.5
			l-5.2,11.2l-4.5,9.7l-0.1,0.3C203.7,606.9,202,605.5,200.3,604.1z"/>
		<path class="st11" d="M264.6,636.4c-1.9,5-4.7,11.4-7.3,17c0.5,0.2,1.1,0.4,1.6,0.5c8.9,2.9,18.6,5.5,29.1,7.7c0.1,0,0.1,0,0.2,0
			c1.9,0.4,3.9,0.8,5.9,1.2c0.3,0.1,0.6,0.1,1,0.2c7.6,1.5,15.7,2.8,24.2,3.9c3,0.4,6,0.8,9.1,1.1l0.2-1.9l3.9-29.8
			c0,0,8.6,0.4,19.3,0.9c1.8,0.1,3.6,0.2,5.5,0.3c13.9,0.7,29.4,1.5,34.3,1.8c0.8,0.1,1.3,0.1,1.5,0.1c0.3,0,0.5,0.4,0.8,1.1
			c-0.2-10.6-0.6-20.7-2.2-20.9c-0.2,0-0.7-0.1-1.5-0.1c-4.8-0.3-19.9-1.1-33.6-1.7c-5.6-0.3-10.9-0.5-15.2-0.7
			c-6.2-0.3-10.3-0.5-10.3-0.5l-4.1,31.6c-1.6-0.2-3.1-0.4-4.7-0.6c-11-1.4-21.4-3-31-4.9c-0.9-0.2-1.7-0.3-2.6-0.5
			c-0.1,0-0.3-0.1-0.4-0.1c-0.5-0.1-1-0.2-1.5-0.3c-1.5-0.3-2.9-0.6-4.3-1c-6-1.4-11.7-2.8-17.1-4.4
			C265.1,636.6,264.9,636.5,264.6,636.4z"/>
		<path class="st11" d="M395.1,652.4c0.2,4.1,0.3,8.7,0.3,13.1c0,2.3,0.1,4.5,0.1,6.6l12.7,0.1c5.8-0.5,11.4-1.1,16.9-1.7
			c6.1-0.7,11.9-1.4,17.7-2.2c7.5-1,14.7-2.1,21.7-3.3c0.2,0,0.3-0.1,0.5-0.1c11.1-1.9,21.6-4,31.4-6.2l-2.5-12.7l-1.3-6.5
			c-9,2-18.4,3.9-28.5,5.6c-9.2,1.6-18.9,3-29.1,4.3c-3.1,0.4-6.3,0.8-9.5,1.1c-6.1,0.7-12.3,1.3-18.8,1.9l-3.5,0L395.1,652.4z"/>
		<path class="st11" d="M546.2,623.4c0.5,6.8,0.8,13.8,1.1,19.9c1.1-0.4,2.1-0.8,3.1-1.3c19.6-8,35.9-17,49.5-27
			c2.2-1.6,4.3-3.3,6.4-4.9c0.7-0.6,1.4-1.1,2-1.7c0.5-0.4,1-0.8,1.5-1.2c2.3-2,4.5-3.9,6.6-6c8-7.6,14.7-15.6,20.4-24
			c36.2-53.5,29.2-122,26.6-189.6c0,0-0.2,0.4-0.5,1.2c2.6,58.3,4.7,115.9-23.8,162.9c-4.5,7.4-9.8,14.6-16,21.5
			c-2.3,2.5-4.7,5-7.2,7.5c-2.4,2.3-4.8,4.5-7.4,6.7c-14.9,12.7-33.6,24.1-57.2,33.9C549.5,622.1,547.9,622.8,546.2,623.4z"/>
		<path class="st11" d="M510.2,600.9c2.9-0.6,5.8-1.2,8.7-1.8c1.5-0.3,2.9-0.6,4.4-0.9c0.9-0.2,1.7-0.3,2.6-0.5
			c2.2-0.4,4.4-0.8,6.3-1.1c2-0.3,3.8-0.6,5.2-0.8c2.2-0.3,3.7-0.4,4.4-0.3c1.5,0.3,2.7,7.1,3.6,16.3c-0.5-9.3-1.2-18.9-2.1-25.9
			c-0.8-5.9-1.7-9.9-2.9-10.1c-1-0.2-4.3,0.3-8.8,1c-1.7,0.3-3.6,0.6-5.6,1c-0.2,0-0.4,0.1-0.7,0.1c-1.5,0.3-3.1,0.6-4.8,0.9
			c-2.6,0.5-5.4,1.1-8.1,1.6c-13.8,2.8-27.4,5.8-27.4,5.8l1.4,19.7C490.1,605.1,501,602.8,510.2,600.9z"/>
		<polygon class="st11" points="380.6,489.7 355,490.1 353.9,492.3 348.4,504.1 354.1,504 381.6,503.6 390,503.4 429.8,502.8 
			441,502.7 441.4,502.6 441,501.9 433.8,488.9 430.3,488.9 388.6,489.6 		"/>
	</g>
</g>
</svg>
