<?xml version="1.0" encoding="utf-8"?>
<!-- Generator: Adobe Illustrator 25.4.1, SVG Export Plug-In . SVG Version: 6.00 Build 0)  -->
<svg version="1.1" id="Capa_1" xmlns="http://www.w3.org/2000/svg" xmlns:xlink="http://www.w3.org/1999/xlink" x="0px" y="0px"
	 viewBox="0 0 800 800" style="enable-background:new 0 0 800 800;" xml:space="preserve">
<style type="text/css">
	.st0{fill-rule:evenodd;clip-rule:evenodd;fill:#D26828;}
	.st1{fill-rule:evenodd;clip-rule:evenodd;fill:#E57125;}
	.st2{fill-rule:evenodd;clip-rule:evenodd;fill:#7B4522;}
	.st3{fill-rule:evenodd;clip-rule:evenodd;fill:#8F5024;}
	.st4{fill-rule:evenodd;clip-rule:evenodd;fill:#72401F;}
	.st5{fill-rule:evenodd;clip-rule:evenodd;fill:#EB7523;}
	.st6{fill-rule:evenodd;clip-rule:evenodd;fill:#DA6D26;}
	.st7{fill-rule:evenodd;clip-rule:evenodd;fill:#CA5828;}
	.st8{fill-rule:evenodd;clip-rule:evenodd;fill:#ED7F22;}
	.st9{fill-rule:evenodd;clip-rule:evenodd;fill:#231815;}
	.st10{fill-rule:evenodd;clip-rule:evenodd;fill:#883922;}
</style>
<g>
	<g>
		<path class="st0" d="M309.1,136c52.4-23,98.9-26.1,171.2,0.1C636.2,192.6,640.7,685.7,370.6,681
			C127.1,676.8,256.7,159.1,309.1,136z"/>
		<path class="st1" d="M473.7,184.5C629.4,40.9,840.1,364.7,607.3,657.2c-117.9,83.1-186.4,2.1-186.4,2.1S455.7,197.8,473.7,184.5z"
			/>
		<path class="st1" d="M351.7,178.9c0,0-61.7-56.3-158.8-24.2c-85,28.1-171.9,284.7-3.8,494.5c123,85.1,199.7,5.3,199.7,5.3
			S370.4,192.5,351.7,178.9z"/>
		<path class="st2" d="M498.2,195.9c-7.3-3.3-75.4-38.7-82-45.4c-29.7-30.3-21.5-56.8-6.8-71.8c62.7-64.4,123.9,61.2,54.4,33.8
			c0.8,6.1-0.6,13.2,0,13.5c60.2,37.6,88.1-97.6,7.1-110.1C352.6-2.3,321.4,73.7,352.4,154.4c0,0-24.1,29.9-75.3,33.4
			C353.9,260.9,428,272,498.2,195.9z"/>
		<path class="st3" d="M389.5,73.8c21.7-18.4,57.6-22.5,61.3-20.3c3.6,2.2-16.3-10-16.3-10s37.9,1.5,50.8,18.5
			c12.3,16.2,11.9,33.5,11.6,36.2c0.4-1.7,1.8-8.1,3.9-21.5c2.8-17.5-5.5-32.4-5.5-32.4s11.2,16.3,13.5,37.3
			c1.3,11.9-0.4,24-2.1,32.3C525,85.5,519.4,27.3,469,19.5c-37.2-5.7-65.3-1.6-85.1,9.4c-5.2,6.1-10.1,13.5-14.5,22.1
			c0,0,37-17.9,38.7-17.9c1.6,0-25.9,16.8-37.7,37.7c-7.1,12.5-9,32.6-9.5,47.5c-0.4,10.1,0,17.7-0.2,18.9
			c-0.2,1.3,1.2-7.8,4.9-19.7C369.9,102.9,377.6,83.9,389.5,73.8z"/>
		<path class="st4" d="M471.8,187.2c-12.1-2.7-26.1-7.6-39.7-16.6c-29.7-19.5-37.1-36.6-41.1-51.7c-0.1-0.4-0.2-0.9-0.3-1.3
			c-3.4-15,1.5-35-0.2-32.6c-1.4,2-9.4,15.2-12.1,33c-0.7,4.7-1,9.6-0.8,14.8c1.2,24.7,26.2,57.4,23,53.7
			c-3.2-3.7-34.6-36.4-34.6-36.4l4.2,28.5c-0.8-5.1-9.4-17.5-12.9-31.7l-5.1,7.6c0,0-5.2,6.4-15.8,13.6c9.9,6,15.1,10.8,15.1,10.8
			c2.4,1.7,4.8,10.7,7.1,25.1c10.8-5.9,22.9-9,36.3-9.1c24.5,0,44.4,7.9,60.5,22.2c2.4-3.1,6.2-7.4,11.3-11.8
			C468.6,196.8,470.3,190.6,471.8,187.2z"/>
		<path class="st5" d="M546,220.2c0,0,23.2-62.8,116.5-14.1c61.3,32,166.1,300.9-5.4,467.3c-115.9,92.4-141.6,3.4-141.6,3.4
			S531.5,232.9,546,220.2z"/>
		<path class="st6" d="M621.4,354.1l0-0.2c-2.5-18.8-5.7-38.6-11.3-56.7c-6-19.1-15.1-37.5-23.9-55.3c45,54.4,87.7,109.1,40.8,392.3
			c-0.8,10.9-3.3,22.7,2.1,32.9c116.3-89.3,120.8-232.8,122-237.8c1,104.6-19.9,163.9-86.2,240.3c-35.7,41.3-85,54.4-112.1,53.2
			c-6.1-0.3-16.8-4.5-22.2-1.5c38.7-13.9,79.6-140,88-178.2c6.4-28.9,6.8-59.9,7-89.3C625.9,420.7,625.7,387,621.4,354.1z"/>
		<path class="st7" d="M562.5,199.3c-11,182.5-11.1,513.9-37.5,527.8C612.6,734,714.5,326.2,562.5,199.3z"/>
		<path class="st5" d="M452.2,221.9c0,0,35.5-58.9,107.1-24.3c62.7,30.3,131.4,298.4-1.9,512.7c-95.2,86.1-149.8,2.5-149.8,2.5
			S437.7,235.6,452.2,221.9z"/>
		<path class="st6" d="M503.1,311.4c43,257.9,7.3,388.6,25.5,387.5c51.1-3.3,73.2-90.9,80.2-100.4c-7.7,37.4-28.3,79.9-51.3,111.9
			c-19.2,30.6-62.9,39.5-95.5,31.8c3.7-4.8,5.7-10.3,8.2-15.8c7.1-16,13.1-32.2,17.3-49.2c10.6-42.6,16.5-86.7,22-130.1
			C514.1,509.8,505.4,348.7,503.1,311.4z"/>
		<path class="st7" d="M463.5,748.3c0,0,40.5-38.1,56.4-181.3c15.8-142.7-6.3-302.5-64.4-349.8c-5.2,116.2,4.7,520.1-12.9,527.5
			C445.5,744.6,463.5,748.3,463.5,748.3z"/>
		<path class="st8" d="M633,465.5c-22.9-168.3-55.4-258.8-144.8-273.4C629.4,144.2,638.4,407.2,633,465.5z"/>
		<path class="st5" d="M243.8,221.4c0,0-2.1-53.5-88.2-43.6c-35.9,4.1-66.4,36.8-86.3,85.8c-1.2,2.1-2.3,4.3-3.3,6.6
			c-25.7,57.6-38.4,137.3-32.3,198.8c3.5,36,7.2,66.6,18.7,100.9c11.5,34.3,30,68.3,57.4,98.8c16.7,18.6,46.6,41,90.1,48.9
			c20.5,3.7,56.9,5.8,79.4-1.2c-3.4-1.8-23.7-24.4-32.2-33.1c13.3-8.3,21.6-16.3,21.6-16.3S257.8,234.4,243.8,221.4z"/>
		<path class="st6" d="M32.8,415c-1.5,94.5,13.3,182.8,76.9,253.6c16.7,18.6,46.5,41.1,89.9,49.1c21.1,3.9,42.3,4.7,63.5,1.4
			c-11.8-5-20.8-31.4-25.9-43.6C123.6,672.1,62.4,618.4,32.8,415z"/>
		<path class="st7" d="M231.6,709.2c-88.8-94-114-409.1-5.3-518.6C201,381.4,227.4,693.2,246.4,698
			C243.5,698.5,231.6,709.2,231.6,709.2z"/>
		<path class="st5" d="M353.7,213.5c0,0-37.6-58.3-105.1-38.7c-67.5,19.6-144.3,308.7-19.5,525.2c62.4,107.6,149.7,5,149.7,5
			S367.7,227.5,353.7,213.5z"/>
		<path class="st6" d="M161.8,431.7c-7,92.7,19.4,192.4,63.5,268.3c13.3,22.9,41.6,51.4,70.8,50.8c14-0.3,46.8,0.2,57.5-8.2
			c5.2-4.1,3.8-3.6,9.2-7.5c4.5-3.3-5-17-0.8-20.7c-19.5,0-29.7-19.5-40.7-32.3c-30.1-35.2-42.5-234.4-52.2-278.6
			c-26.5,104.2-15.5,199.8-25.4,230.5c-4.7,14.4-16.2,19.8-26,8.6C185,605.3,164.7,484.6,161.8,431.7z"/>
		<path class="st7" d="M350.6,209.2c0.6,116.2-19.5,530.8-2.2,538.5C208,746.5,238.8,280.7,350.6,209.2z"/>
		<path class="st5" d="M264.3,488.7c12.8-156.1,42.1-293.6,130.8-293.7c100.7-0.1,123.7,134.6,123,291.1
			c-1.1,243.8-70.1,278-133.9,274.5C304.3,756.1,249.1,675.6,264.3,488.7z"/>
		<path class="st6" d="M350.6,209.2C194,545,415.2,857.1,506.5,632.4C482,746.5,426.8,761.9,386.8,761.2
			C203.4,766.6,240.3,301.2,350.6,209.2z"/>
		<path class="st8" d="M365.6,227.8c0,0,37.9-48.4,84.5-2.4c40.6,40.1,71.9,148.9,50.5,274.7C487.6,309.9,431,211.2,365.6,227.8z"/>
		<path class="st8" d="M726.3,382.9c-37-115.9-79.2-155.6-99-166.1c-13-26.4,33.2-14.6,45.4,2.3
			C730.3,295.2,738.9,385.6,726.3,382.9z"/>
		<path class="st8" d="M174.1,456.2c15.5-172.9,64.9-267.4,155.1-251.4C186.4,115.9,171.2,401.9,174.1,456.2z"/>
		<path class="st8" d="M177.4,210.7c4-16.3-14.9-12-32.7-4.1C91.1,236.3,79.8,377.1,82.1,377C80.6,382.3,125,229.6,177.4,210.7z"/>
		<polygon class="st9" points="153.6,432.2 326,450.4 210.3,321.5 		"/>
		<polygon class="st9" points="638.3,420.2 467.2,447.2 576,312.6 		"/>
		<polygon class="st9" points="446.2,527.5 353.1,529.1 396.1,433.3 		"/>
		<path class="st9" d="M561.5,550.5l5,25.8l-65,15.9c-3.4-1.5-5.1-12.8-9.4-22.9c-60,10.9-125.1,10.4-183,2.2l-8.9,25.4l-70.5-14.1
			c-1.6-1.9-1.3-14.8,1.5-28.2c-62.9-26.2-85.6-39.9-101.7-69.9c14.8,136.5,90.2,176.8,168.5,195.7l10.2-27l53.7,8
			c2.8,8.5-0.4,19,2.9,28.4c37.4,1.9,63.7-2,63.7-2s20.9-2.4,46.1-6.3l0.1-31.9l53.3-8.7c5.4,0.7,6.7,14.6,15.6,26.5
			c1.6-0.5,3.2-1,4.6-1.5c90-38.2,91.6-126.4,107.5-174.2C626.4,518,594.6,537,561.5,550.5z"/>
		<path class="st10" d="M244,632.9c-5-2.2-9.9-4.5-14.7-7c-11.4-6-22.4-13-32.6-21.4c-4.3-3.6-8.5-7.3-12.6-11.4c-2-2-4-4.1-6-6.3
			c-2.4-2.7-4.7-5.4-7-8.3c-17.8-22.6-31.8-51.9-39.9-90.4c-0.6-1.1-1.2-2.2-1.8-3.3c6.8,62.9,26.5,105.4,53.5,134.8
			c2.8,3.1,5.8,6.1,8.8,8.9c2,1.9,4,3.7,6.1,5.5c11.2,9.6,23.4,17.4,36.1,23.9c9.9,5.1,20.2,9.3,30.6,13c3.1,1.1,6.3,2.1,9.5,3.1
			c2.4,0.7,4.7,1.4,7.1,2.1c0.4,0.1,0.9,0.2,1.3,0.4c5.2,1.5,10.4,2.8,15.6,4.1l6.5-17.3l3.5-9.4l0.1-0.4l33.1,4.9l11.8,1.8l8.9,1.3
			c1.2,3.5,1.3,7.3,1.3,11.3c0,0.1,0,0.2,0,0.3c0,2.5-0.1,5.1,0,7.7c0.1,3.1,0.5,6.1,1.6,9.1c4.7,0.2,9.3,0.4,13.6,0.5
			c0.9,0,1.7,0,2.5,0c10.9,0.1,20.5-0.2,28.1-0.7c12.3-0.7,19.5-1.8,19.5-1.8s9-1,22.3-2.8c1.7-0.2,3.4-0.5,5.3-0.7
			c5.7-0.8,12-1.7,18.5-2.7l0.1-29.5l0-2.4l4.7-0.8l14.6-2.4l6.6-1.1l2.1-0.3l0.7-0.1l3.6-0.6l9.6-1.6l7.2-1.2l4.2-0.7
			c4.7,0.6,6.3,11.2,12.4,21.7c0.9,1.6,2,3.2,3.2,4.8l4.6-1.5c14.1-6,26.1-13.2,36.3-21.3c2.3-1.8,4.5-3.7,6.6-5.6
			c1.5-1.4,3-2.8,4.4-4.2c1.3-1.2,2.5-2.5,3.7-3.8c2.8-3,5.5-6.2,8-9.3c15.1-19.2,24.1-40.8,30.6-61.8c7.8-25.3,11.8-49.7,17.9-68.1
			c-0.4,0.3-0.7,0.6-1.1,1c-3.9,16.2-8.2,34.1-15,51.9c-5.2,13.8-12,27.5-21.1,40.3c-2.9,4.1-6.1,8.1-9.5,12c-3,3.4-6.3,6.8-9.8,10
			c-12.1,11.2-27.1,21.1-45.9,28.9l-4.7,1.5c-2.1-2.7-3.8-5.6-5.2-8.3c-4.7-9.2-6.5-17.7-10.7-18.2l-8,1.3l-6.9,1.1l-0.2,0l-4.4,0.7
			l-4.3,0.7l-9.3,1.5l-27.4,4.3l-0.1,31.9c-7.7,1.2-14.4,2.1-20.1,2.9c-13.3,1.8-20.7,2.5-20.7,2.5s-3.7,0.5-10.4,1.1
			c-2.8,0.2-6.1,0.5-9.8,0.7c-7.8,0.4-17.5,0.8-28.6,0.6c-1.6,0-3.1,0-4.8-0.1c-3.7-0.1-7.5-0.2-11.4-0.4c-3.4-9.4-0.1-19.9-3-28.4
			l-21.9-3.2l-7.9-1.1l-25-3.6l-5.1,13.2l-5.3,13.8c-4.9-1.2-9.8-2.4-14.7-3.7c-3.8-1-7.6-2.1-11.3-3.3c-0.2-0.1-0.5-0.2-0.7-0.2
			c-1.1-0.3-2.2-0.7-3.3-1.1c-1-0.3-1.9-0.6-2.9-1C257.9,638.5,250.9,635.8,244,632.9z"/>
		<polygon class="st10" points="421.6,511.1 382.2,511.8 373.2,511.9 360.7,512.1 353.1,529.1 373.8,528.7 383.1,528.6 420.3,528 
			431.5,527.8 446.2,527.5 437.3,510.8 433,510.9 		"/>
		<polygon class="st10" points="296.4,427.4 272.7,424.9 270.7,424.7 265.5,424.1 264.3,424 261.8,423.7 260.4,423.6 228.6,420.2 
			216.3,418.9 178.7,414.9 174.6,414.5 163.3,413.3 163,413.9 154.5,430.5 153.6,432.2 154.5,432.3 161.7,433 161.9,433 
			162.6,433.1 173.9,434.3 176.3,434.6 216.7,438.8 227.8,440 259.4,443.3 260.6,443.5 261.2,443.5 263,443.7 268.5,444.3 
			275.3,445 296,447.2 326,450.4 306.3,428.4 		"/>
		<polygon class="st10" points="486.6,423.2 467.2,447.2 495,442.8 507,440.9 509.3,440.6 517.5,439.3 519.5,439 524,438.2 
			526.1,437.9 553.1,433.6 585.5,428.5 625.7,422.2 626.5,422 633.8,420.9 633.9,420.9 638.3,420.2 633.7,412.1 633.5,411.9 
			627.2,401 625.1,401.4 623.1,401.7 587,407.4 553.8,412.6 527.3,416.8 522.8,417.5 517.5,418.3 516.7,418.5 508.5,419.8 
			507.5,419.9 492.1,422.4 		"/>
		<path class="st10" d="M319.6,572.9c-2.3-0.3-4.7-0.6-7-0.9c-1.2-0.2-2.3-0.3-3.5-0.5l-8.9,25.4l15.4-4.8l1.2-6.1L319.6,572.9z"/>
		<path class="st10" d="M480.3,571.3l7.6,17l13.6,3.9c-3.4-1.5-5.1-12.8-9.4-22.9C488.2,570,484.3,570.7,480.3,571.3z"/>
	</g>
</g>
</svg>
