<svg id="Capa_1" data-name="Capa 1" xmlns="http://www.w3.org/2000/svg" viewBox="0 0 792.77 628.86"><defs><style>.cls-1{fill:#c83031;}.cls-2{fill:#00ac4e;}.cls-3{fill:#008443;}.cls-4{fill:#303646;}.cls-5{fill:#00b0ff;}.cls-6{fill:#ffc436;}.cls-7{fill:#8cd1f3;}.cls-8{fill:#fff;opacity:0.5;}</style></defs><path class="cls-1" d="M103.93,547.64H564a5,5,0,0,1,5,5V611.4a5,5,0,0,1-5,5H103.93a0,0,0,0,1,0,0V547.64A0,0,0,0,1,103.93,547.64Z" transform="translate(807.5 967.67) rotate(165.26)"/><polygon class="cls-2" points="526.49 23.12 410.84 53.55 504.62 409.94 131.86 508.03 23.32 248.22 4.06 253.28 0 237.87 292.82 160.82 361.23 41.88 520.4 0 526.49 23.12"/><polygon class="cls-3" points="386.84 60.21 471.92 383.53 377.31 408.42 318.25 183.99 386.84 60.21"/><rect class="cls-3" x="232.24" y="289.99" width="97.83" height="232.07" transform="translate(-96.58 -6.7) rotate(-14.74)"/><polygon class="cls-3" points="179.98 220.38 239.04 444.81 144.43 469.7 59.33 252.13 179.98 220.38"/><circle class="cls-4" cx="282.43" cy="636.82" r="83.64" transform="translate(-135.87 -13.76) rotate(-12.73)"/><circle class="cls-5" cx="282.43" cy="636.82" r="47.07" transform="translate(-190.9 31.74) rotate(-18.6)"/><path class="cls-6" d="M601.92,150.44,719.59,321.25a51.89,51.89,0,0,1,7.46,16.26L770.7,503.36l-237.52,62.5L436.25,197.51a37.71,37.71,0,0,1,26.88-46.07l82.76-21.78A52,52,0,0,1,601.92,150.44Z" transform="translate(-2.51 -91.62)"/><path class="cls-4" d="M712.83,445.66h77.78a0,0,0,0,1,0,0V499a0,0,0,0,1,0,0H712.83a3.55,3.55,0,0,1-3.55-3.55V449.21a3.55,3.55,0,0,1,3.55-3.55Z" transform="translate(1592.9 646.66) rotate(165.26)"/><path class="cls-4" d="M544.45,562.9a83.64,83.64,0,1,1,102.17,59.6A83.62,83.62,0,0,1,544.45,562.9Z" transform="translate(-2.51 -91.62)"/><circle class="cls-5" cx="625.33" cy="541.61" r="47.07" transform="translate(-158.59 721.62) rotate(-60.06)"/><path class="cls-7" d="M731.2,353.26l16.12,61.26-8.65,2.27a13.24,13.24,0,0,1-16.19-9.44l-9.37-35.63a13.25,13.25,0,0,1,9.44-16.19Z" transform="translate(-2.51 -91.62)"/><path class="cls-7" d="M584.13,170.33,673,300.47a32.15,32.15,0,0,1-18.37,49.22l-108.1,28.45a32.15,32.15,0,0,1-39.4-23.45L471.76,210.27a32.14,32.14,0,0,1,23.15-38.77l54.61-14.16A32.15,32.15,0,0,1,584.13,170.33Z" transform="translate(-2.51 -91.62)"/><path class="cls-8" d="M525,163.71,658.71,279.53,673,300.47a31.79,31.79,0,0,1,5.57,19L498.93,170.46Z" transform="translate(-2.51 -91.62)"/><polygon class="cls-8" points="496.3 229.07 487.78 194.3 582.31 276.44 558.59 282.68 496.3 229.07"/><path class="cls-8" d="M618.54,359.19,479.37,241.36l-7.61-31.09a32.13,32.13,0,0,1,7.1-28.9L674.21,334.73a31.78,31.78,0,0,1-19.57,15Z" transform="translate(-2.51 -91.62)"/><rect class="cls-4" x="520.7" y="399.56" width="36.04" height="8.69" transform="translate(-87.57 58.77) rotate(-14.74)"/><path class="cls-1" d="M774.71,320.53" transform="translate(-2.51 -91.62)"/><path class="cls-4" d="M503.48,550.17h0A13.2,13.2,0,0,0,512.89,534L459.44,330.9l15.29-4,57,216.81a13.2,13.2,0,0,1-9.41,16.14l-15.29,4Z" transform="translate(-2.51 -91.62)"/><path class="cls-4" d="M404.71,174.83h0a13.2,13.2,0,0,1,16.13,9.41L474.3,387.38l15.29-4-57-216.81a13.21,13.21,0,0,0-16.14-9.41l-15.29,4Z" transform="translate(-2.51 -91.62)"/><polygon class="cls-4" points="494.64 289.74 459.01 299.12 420.09 151.21 459.1 140.94 494.64 289.74"/><path class="cls-5" d="M500.81,523l18.88,71.75a5.27,5.27,0,0,1-3.75,6.44L408.66,629.4a5.26,5.26,0,0,1-6.48-3.95l-15.87-71.09a5.28,5.28,0,0,1,3.74-6.23l104.26-28.88A5.25,5.25,0,0,1,500.81,523Z" transform="translate(-2.51 -91.62)"/><path class="cls-4" d="M479,535.77a5.11,5.11,0,1,0,3.64-6.25A5.12,5.12,0,0,0,479,535.77Z" transform="translate(-2.51 -91.62)"/><path class="cls-4" d="M484.09,555.28a5.11,5.11,0,1,0,3.64-6.25A5.11,5.11,0,0,0,484.09,555.28Z" transform="translate(-2.51 -91.62)"/><path class="cls-4" d="M489.23,574.79a5.11,5.11,0,1,0,3.64-6.25A5.1,5.1,0,0,0,489.23,574.79Z" transform="translate(-2.51 -91.62)"/><path class="cls-4" d="M494.36,594.3a5.11,5.11,0,1,0,3.64-6.24A5.11,5.11,0,0,0,494.36,594.3Z" transform="translate(-2.51 -91.62)"/><path class="cls-4" d="M398.6,556.91a5.11,5.11,0,1,0,3.64-6.24A5.12,5.12,0,0,0,398.6,556.91Z" transform="translate(-2.51 -91.62)"/><path class="cls-4" d="M403.74,576.42a5.11,5.11,0,1,0,3.64-6.24A5.11,5.11,0,0,0,403.74,576.42Z" transform="translate(-2.51 -91.62)"/><path class="cls-4" d="M408.87,595.93a5.11,5.11,0,1,0,3.64-6.24A5.11,5.11,0,0,0,408.87,595.93Z" transform="translate(-2.51 -91.62)"/><path class="cls-4" d="M414,615.44a5.11,5.11,0,1,0,3.64-6.24A5.1,5.1,0,0,0,414,615.44Z" transform="translate(-2.51 -91.62)"/></svg>