<svg xmlns="http://www.w3.org/2000/svg" viewBox="0 0 534.25 798.04"><defs><style>.cls-1{isolation:isolate;}.cls-2{fill:#ffc064;}.cls-3{fill:#efd2bb;}.cls-12,.cls-3{mix-blend-mode:multiply;}.cls-4{fill:#9b723d;}.cls-5{fill:#ffb450;}.cls-6{fill:#ffdb94;}.cls-7{fill:#ffd77d;}.cls-8{fill:#f4ad58;}.cls-9{fill:#84644f;}.cls-10{fill:#f99a75;}.cls-11,.cls-13{fill:#fff;}.cls-11{opacity:0.48;}.cls-12{fill:#e5d4cc;}.cls-14{fill:#3a3a3a;}</style></defs><g class="cls-1"><g id="Capa_1" data-name="Capa 1"><path class="cls-2" d="M170.5,511.08c-4.94.33-8.54,5.36-8.9,10.29s1.76,9.7,4.1,14.06c10,18.56,25.47,34.41,44.62,43.18s42,10,61.37,1.78c5.06-2.16,10-5.08,13.11-9.66,8.78-13.12-3.71-20.15-15.22-18.13-13.05,2.28-24.63,3.64-37.91,1C206.66,548.57,183.43,533.29,170.5,511.08Z" transform="translate(-133.94 -1.26)"/><path class="cls-3" d="M269.58,552.6c-11.6,2-22,3.32-33.56,1.72-23.19,31.23-63.25-16.11-70.84-40.73-13.12,14.47,16,44,23.38,50.8C255.45,620.29,321,551.78,269.58,552.6Z" transform="translate(-133.94 -1.26)"/><path class="cls-4" d="M183,506.84A29.72,29.72,0,0,0,178.09,489c-4-5.77-10.16-9.67-14.45-15.21A29.77,29.77,0,0,1,158,450.59a35.76,35.76,0,0,0-13.87,32.87,33,33,0,0,1-4.46-12.87,55.69,55.69,0,0,0-3.83,38.78A38.55,38.55,0,0,0,144.57,526c4.36,4.58,10.42,7.74,16.74,7.8C176,533.92,182.53,519.6,183,506.84Z" transform="translate(-133.94 -1.26)"/><path class="cls-3" d="M179.24,521.83a23.12,23.12,0,0,1-14.68,2,22.65,22.65,0,0,1-9.65-4c-4.25-3.18-6.92-8-9.19-12.81-4.95-10.45-8.58-22.69-5.59-33.55-.21-.94-.38-1.9-.5-2.86a55.69,55.69,0,0,0-3.83,38.78A38.55,38.55,0,0,0,144.57,526c4.36,4.58,10.42,7.74,16.74,7.8,8.86.09,14.76-5.12,18.14-12.07Z" transform="translate(-133.94 -1.26)"/><path class="cls-5" d="M196.86,334.75c-15.09-3.71-32.51-5.49-44.83,4-14.7,11.28-15.11,34.58-5.53,50.45s26.37,25.78,42.95,34.05a472,472,0,0,0,75.8,30,523.68,523.68,0,0,0,23.89-50.4c2.61-6.35,10.28-19.08,7.77-25.36-1.88-4.69-13-10.39-17.6-12.42-11.24-5-23.09-7.44-34.38-12.85A249,249,0,0,0,196.86,334.75Z" transform="translate(-133.94 -1.26)"/><path class="cls-3" d="M151.7,373.71c8.58,12.65,22.61,20.35,36.31,27.13a704.79,704.79,0,0,0,85.88,35.63q-4.17,8.43-8.64,16.71a472,472,0,0,1-75.8-30C172.87,415,156.07,405,146.5,389.17c-7.92-13.11-9-31.3-.84-43.59C143.79,355,146.22,365.62,151.7,373.71Z" transform="translate(-133.94 -1.26)"/><path class="cls-5" d="M611.36,334.75c15.09-3.71,32.5-5.49,44.83,4,14.69,11.28,15.1,34.58,5.53,50.45s-26.38,25.78-43,34.05a472,472,0,0,1-75.8,30,526.15,526.15,0,0,1-23.9-50.4c-2.61-6.35-10.27-19.08-7.76-25.36,1.88-4.69,13-10.39,17.6-12.42,11.23-5,23.08-7.44,34.37-12.85A248.84,248.84,0,0,1,611.36,334.75Z" transform="translate(-133.94 -1.26)"/><path class="cls-3" d="M656.51,373.71c-8.57,12.65-22.6,20.35-36.31,27.13a704.79,704.79,0,0,1-85.88,35.63q4.18,8.43,8.65,16.71a472,472,0,0,0,75.8-30c16.57-8.27,33.37-18.19,43-34.05,7.91-13.11,9-31.3.84-43.59C664.43,355,662,365.62,656.51,373.71Z" transform="translate(-133.94 -1.26)"/><path class="cls-6" d="M497.41,799.3H306.15Q311.52,566.14,316.9,333H487.74Q492.57,566.15,497.41,799.3Z" transform="translate(-133.94 -1.26)"/><path class="cls-3" d="M493.47,609.54a34.75,34.75,0,0,0-8.15-1.38L310.89,593.82q-1.14,49-2.26,98.07A259.88,259.88,0,0,0,461.26,701q-.25,49.23,3.94,98.34h32.21Q495.45,704.43,493.47,609.54Z" transform="translate(-133.94 -1.26)"/><path class="cls-5" d="M406.38,227.77h0A146.67,146.67,0,0,0,259.71,374.44q-6.45,129.75-12.89,259.49a354.75,354.75,0,0,0,330.94,2.15Q565.4,505.27,553.05,374.44A146.67,146.67,0,0,0,406.38,227.77Z" transform="translate(-133.94 -1.26)"/><path class="cls-7" d="M511.48,554.36c-11.39-26.37-26-52.37-48.63-70a106.45,106.45,0,0,0-147.37,16.1A144.08,144.08,0,0,0,297,530.19c-17.14,35.64-24.43,74.92-28.37,114.45A354.14,354.14,0,0,0,541,652.51,445.81,445.81,0,0,0,511.48,554.36Z" transform="translate(-133.94 -1.26)"/><path class="cls-8" d="M544.89,627.16c-1.77.12-3.56,1.23-5.17,2s-3.09,1.36-4.61,2.09-2.94,1.37-4.38,2.12c-.72.37-1.43.75-2.13,1.16a4.83,4.83,0,0,0-2.16,1.77,1.77,1.77,0,0,0,1,2.56c1.52.45,3.51-.55,4.93-1.06,1.58-.56,3.14-1.21,4.7-1.83s3.2-1.34,4.8-2,3.56-1.2,4.8-2.36C548.26,630.08,547.13,627,544.89,627.16Z" transform="translate(-133.94 -1.26)"/><path class="cls-8" d="M524.68,566.71c-1.68.06-3.12,1.38-4.48,2.29-1.18.78-2.36,1.56-3.53,2.36-2.47,1.68-5,3.3-7.3,5.19a2.19,2.19,0,0,0-.58,2.19,2.22,2.22,0,0,0,.93,1.26l.1.08a2.23,2.23,0,0,0,2.27,0c2.51-1.3,4.86-2.92,7.25-4.44l3.45-2.22,1.72-1.12a5.51,5.51,0,0,0,2.24-2A2.42,2.42,0,0,0,524.68,566.71Z" transform="translate(-133.94 -1.26)"/><path class="cls-8" d="M502.28,519c-1.13.31-1.68,1.2-2.48,2-.29.26-.59.51-.9.76l-.08.06c-.19.15-.39.29-.59.43-1.49,1.08-2.94,2.19-4.32,3.4a44.21,44.21,0,0,0-3.72,3.65,22.18,22.18,0,0,0-1.82,2.28c-.22.32-.43.65-.64,1a7.14,7.14,0,0,0-.56,1.41c-.41,1.08.94,1.82,1.81,1.39a7.25,7.25,0,0,0,1.14-.59l1.05-.76c.79-.57,1.53-1.2,2.29-1.81,1.34-1.09,2.5-2,3.86-3s2.76-1.92,4.12-2.89c1.57-1.12,4-2.72,4-4.88A2.49,2.49,0,0,0,502.28,519Z" transform="translate(-133.94 -1.26)"/><path class="cls-8" d="M471.45,478.4a2.52,2.52,0,0,0-2.7-.19,6,6,0,0,0-1.85,1.86l-1.46,1.78c-1,1.28-2.08,2.55-3.08,3.87-.88,1.17-1.79,2.33-2.63,3.54a13.48,13.48,0,0,0-2.32,4.15,1.42,1.42,0,0,0,2.06,1.58,13.73,13.73,0,0,0,3.59-3c1.07-1.07,2.08-2.21,3.11-3.34s1.95-2.23,2.9-3.36l1.49-1.75a7,7,0,0,0,1.76-2.59A2.46,2.46,0,0,0,471.45,478.4Z" transform="translate(-133.94 -1.26)"/><path class="cls-8" d="M422.13,455.74a2.35,2.35,0,0,0-4.61-.63,10,10,0,0,0-.38,2.56c-.07.64-.14,1.29-.19,1.93-.1,1.45-.14,2.91-.18,4.36s0,2.81.07,4.21a21.17,21.17,0,0,0,.23,2.25,3.84,3.84,0,0,0,1,2.14.94.94,0,0,0,1.31,0,4,4,0,0,0,1-2.14c.13-.7.24-1.38.31-2.08.16-1.41.34-2.81.49-4.21s.33-2.81.5-4.21c.08-.64.15-1.29.23-1.93A10.13,10.13,0,0,0,422.13,455.74Z" transform="translate(-133.94 -1.26)"/><path class="cls-8" d="M369.87,471.16c-.49-1.47-1-3-1.48-4.42l-1.53-4.4a23.34,23.34,0,0,0-1.79-4.79,2.39,2.39,0,0,0-3-1,2.44,2.44,0,0,0-1.38,2.81,11.08,11.08,0,0,0,.79,2.29c.29.76.57,1.51.86,2.26.56,1.46,1.11,2.92,1.67,4.37s1.15,2.9,1.73,4.35a15.27,15.27,0,0,0,2.33,4.52A1.72,1.72,0,0,0,371,476,14.92,14.92,0,0,0,369.87,471.16Z" transform="translate(-133.94 -1.26)"/><path class="cls-8" d="M328.45,496.51a16.42,16.42,0,0,0-3.66-2.79l-3.57-2.33-3.57-2.33c-1.23-.79-2.43-1.69-3.72-2.36a2.41,2.41,0,0,0-3.23.85,2.43,2.43,0,0,0,.84,3.23c1.17.88,2.49,1.57,3.74,2.33l3.64,2.21c1.21.74,2.42,1.48,3.64,2.21a16,16,0,0,0,4.1,2.07A1.86,1.86,0,0,0,328.45,496.51Z" transform="translate(-133.94 -1.26)"/><path class="cls-8" d="M310.85,528.85c-.86-1.44-2.65-2.4-4-3.27s-2.73-1.67-4.14-2.45-2.81-1.53-4.23-2.25a34.55,34.55,0,0,0-4.77-2.25c-2.62-.87-4.18,3-1.85,4.4,1.41.82,3,1.37,4.51,2.07s2.79,1.35,4.17,2.06,2.76,1.42,4.13,2.15,3.1,1.88,4.81,2A1.66,1.66,0,0,0,310.85,528.85Z" transform="translate(-133.94 -1.26)"/><path class="cls-8" d="M292.6,570.78a15,15,0,0,0-5-2.14c-1.79-.56-3.59-1.11-5.37-1.72-3.5-1.19-7-2.44-10.39-3.87a2.56,2.56,0,0,0-3.13,1.78A2.6,2.6,0,0,0,270.5,568,104.93,104.93,0,0,0,281,571.47c1.76.48,3.52.93,5.29,1.29s3.85.88,5.69.42A1.44,1.44,0,0,0,292.6,570.78Z" transform="translate(-133.94 -1.26)"/><path class="cls-8" d="M281,621.88c-.3-1.65-3.13-2.3-4.48-2.74-1.58-.5-3.18-1-4.79-1.36s-3.24-.73-4.87-1a29.14,29.14,0,0,0-5.53-.91c-2.68,0-3.1,3.77-.62,4.57a43.8,43.8,0,0,0,5.26.92c1.81.33,3.6.73,5.41,1.09s3.49.74,5.25,1C278,623.67,281.45,624.38,281,621.88Z" transform="translate(-133.94 -1.26)"/><path class="cls-3" d="M577.76,636.08Q565.4,505.27,553.05,374.44a146.28,146.28,0,0,0-9.93-53.14c-32.46-6.54-65.83-7.5-99-7.29-46.76.3-95.15,3.27-136.74,24.63l-1.9,46.4a69.59,69.59,0,0,0,107,47.23,61.46,61.46,0,0,0,91.09-.13,702.28,702.28,0,0,1,9,229.87A358.36,358.36,0,0,0,577.76,636.08Z" transform="translate(-133.94 -1.26)"/><path class="cls-4" d="M350.39,1.86a40.67,40.67,0,0,0-25.87,17.39C318.65,28.11,316.39,39,320.28,49c-14.5-5.06-30-8.52-45.19-6.39s-30.15,10.69-36.84,24.51-2.88,32.83,10.34,40.66a83.83,83.83,0,0,0-37.3,21.34c-6.26,6.26-13.41,13.42-15.16,23.85-4,23.76,23.6,43.44,24.77,44.25a104.44,104.44,0,0,0-38.18,65.95c-1.36,9.15-1.29,19.16,3.88,26.83,7.65,11.36,23.18,13.52,36.83,14.63-9.37,17.1-9.66,37.44-.11,52.86,12.83,20.71,41.62,29.63,67.66,18.75,10.55,32.69,40.48,52.51,68.88,48.9,29.18-3.72,44.28-30.6,45.94-33.67,17.31,30.09,50.15,41.24,72.51,30.63,19.76-9.37,25.12-32.79,25.91-36.49,27.12,14.53,56.42,6.67,66.57-11.22,9-16,.29-35.33-1-38a82.52,82.52,0,0,0,34-24.77c3.75-4.67,8.8-11,11-19.61,6.3-24.42-15.08-47.41-18.06-50.52,1.53-1.15,20.66-16,19.25-40.68a47.89,47.89,0,0,0-29.39-41,39.47,39.47,0,0,0-41.41-63.6c9.33-12.65,11.79-27.87,6-39.75-5.17-10.58-15.06-15.11-19.63-16.82A58.68,58.68,0,0,0,483,43.34a46.66,46.66,0,0,0-33.92-33.25c-18.38-4.34-38,3.36-49,19.42C388.65,9.45,368.51-1.5,350.39,1.86Z" transform="translate(-133.94 -1.26)"/><path class="cls-5" d="M492.38,110c-18.51-14.47-39.66-16.51-82-20.59-22.31-2.15-39.84-2.55-62.08,3.8-20,5.71-38.93,17.78-49.45,35.78-5.65,9.66-8.7,20.59-11.4,31.45-7.57,30.41-12.33,64.65,4,91.38C309.4,281,345,287,380.58,293.08c21.11,3.62,51.91,8.49,86-5.82,10.62-4.45,30-12.56,44.06-31.16C542.08,214.66,532.35,141.22,492.38,110Z" transform="translate(-133.94 -1.26)"/><path class="cls-3" d="M467,286.89c10.59-4.51,29.88-12.72,43.89-31.39,30.82-41.07,21.36-113.11-17.5-144.82a83.25,83.25,0,0,1,13,19.83c7.14,15.15,10.1,32,10.95,48.71.63,12.37.12,25-3.84,36.74a65.67,65.67,0,0,1-32.68,37.44c-2.23,1.1-4.56,2.11-6.34,3.84a17.86,17.86,0,0,0-3.79,6.38,74.66,74.66,0,0,0-5.17,23.86Z" transform="translate(-133.94 -1.26)"/><path class="cls-7" d="M481.16,202.05c-23.32-43.64-106.78-55.28-140.64-20-14.84,15.47-17.07,36.79-18.18,46.94-2.62,23.78.87,50.23,18.05,66.86C357.1,312,382.47,315,405.71,314.16c26.12-.91,54.71-7,70.52-27.79,8.27-10.91,10.23-22.54,11.6-29.93C488.16,254.62,493.35,224.86,481.16,202.05Z" transform="translate(-133.94 -1.26)"/><path class="cls-9" d="M477.53,250.79c-1.63-7.71-1.27,7.26-14,15.8-15.2,9.42-39.41,7.14-48.57-9.15-6.63-5.25,3.26-72.18-9.28-56.46,15.41,102-67.27,77-71.91,44.16-5.3,38.95,64.13,46.05,74.54,11.19C418.35,287.2,477.72,284.29,477.53,250.79Z" transform="translate(-133.94 -1.26)"/><ellipse class="cls-10" cx="271.36" cy="191.85" rx="33.85" ry="15.19"/><path class="cls-3" d="M433.13,184.46a6.53,6.53,0,0,1,2.11,4.48c0,3.86-4.17,6.21-7.81,7.48a92,92,0,0,1-46.93,3.48c-2.68-.51-5.44-1.18-7.56-2.89a8.55,8.55,0,0,1-.7-.65c3.32,6.83,16.86,11.94,33.07,11.94,18.69,0,33.84-6.8,33.84-15.19C439.15,189.9,436.92,186.92,433.13,184.46Z" transform="translate(-133.94 -1.26)"/><path class="cls-11" d="M378.66,187.51c-.92.59-1.92,1.54-1.58,2.57a2.2,2.2,0,0,0,1.05,1.12c2.43,1.45,5.46,1.32,8.27,1a80.26,80.26,0,0,0,10.76-2c2.71-.7,5.71-1.82,6.82-4.39.68-1.57-10.6-3.12-11.66-3A31.07,31.07,0,0,0,378.66,187.51Z" transform="translate(-133.94 -1.26)"/><path class="cls-12" d="M357.19,213.62a6.11,6.11,0,1,1-6.11-6.11A6.1,6.1,0,0,1,357.19,213.62Z" transform="translate(-133.94 -1.26)"/><circle class="cls-12" cx="229.42" cy="245.32" r="6.17"/><path class="cls-12" d="M386.4,224.43a4.7,4.7,0,1,1-4.69-4.7A4.69,4.69,0,0,1,386.4,224.43Z" transform="translate(-133.94 -1.26)"/><path class="cls-12" d="M437.63,224.43a6.11,6.11,0,1,1-6.11-6.11A6.11,6.11,0,0,1,437.63,224.43Z" transform="translate(-133.94 -1.26)"/><circle class="cls-12" cx="325.79" cy="243.91" r="6.17"/><path class="cls-12" d="M467.32,210.58a4.7,4.7,0,1,1-4.69-4.7A4.7,4.7,0,0,1,467.32,210.58Z" transform="translate(-133.94 -1.26)"/><path class="cls-3" d="M325.19,168.34a13.85,13.85,0,0,0,6.88,4.09c8.61,2.74,16.68-1.77,20.29-3.79,2-1.11,16.35-9.44,18.63-25.09.75-5.14.75-15-4.37-17.64-2.61-1.36-5.54-.34-9.16,1-17.74,6.48-26.39,9.91-28.82,12.41C322.56,145.58,319.36,161.28,325.19,168.34Z" transform="translate(-133.94 -1.26)"/><path class="cls-3" d="M476.51,286c8.22-10.95,10.11-22.59,11.45-30,.32-1.81,5.36-31.61-6.95-54.35-4.9-9.05-12.4-16.7-21.5-22.82,4.89,5,9.56,10.29,12.81,16.47,3.8,7.26,5.57,14.38,6.64,23.64,2.56,22,4.31,37-3.48,52.66-9.87,19.82-29.24,28.17-38.75,32.37a101.58,101.58,0,0,1-26.94,7.41,127.55,127.55,0,0,1-40.53-.26c11.85,3,24.66,3.52,36.88,3C432.26,313.08,460.82,306.87,476.51,286Z" transform="translate(-133.94 -1.26)"/><path class="cls-3" d="M440.47,132.73a22.58,22.58,0,0,0-1.54,9.48c.16,9.22,3.23,18.61,9.66,25.22s16.45,10,25.27,7.29,15.51-12,14-21.12c-1.05-6.4-5.55-11.64-10-16.37-4.09-4.35-8.41-8.68-13.8-11.24C456.09,122.19,444.4,123.82,440.47,132.73Z" transform="translate(-133.94 -1.26)"/><path class="cls-3" d="M615.86,199.64a47.86,47.86,0,0,0-29.6-40.85A39.47,39.47,0,0,0,544.52,95.4c9.26-12.69,11.65-27.93,5.78-39.77-5.22-10.56-15.13-15-19.71-16.72a57.07,57.07,0,0,0-8.53-2.38c9,4.59,16.37,13.57,18.17,23.64,3.31,18.61-7,37.09-19.92,50.89,14.59-5.17,32.86-9.63,43.89,1.22,7.13,7,8.25,18.62,4.54,27.89s-11.45,16.42-20,21.65c17.82-3.42,37,11.11,38.46,29.2s-15,35.57-33.15,35.12c11.75,9.19,22,21.14,26,35.49s1,31.28-10.08,41.24-30.5,10.29-40.08-1.15c5,16.71-4.1,36.43-20,43.52s-36.66.65-45.76-14.23c2.22,15.65-14.95,29.26-30.63,27.26s-27.95-15.49-33.27-30.37c-2.89,21.64-20.66,41.6-42.44,43.1s-43.42-19.5-39.25-40.93c-15.72,15.52-40.84,22.9-60.72,13.27s-29-38.74-14.63-55.49c-18,11.3-44.13-1-51.73-20.84a49.11,49.11,0,0,1-2-27,102.21,102.21,0,0,0-6.64,24.28c-1.31,9.16-1.19,19.17,4,26.82,7.71,11.31,23.25,13.39,36.9,14.43-9.28,17.15-9.46,37.49.17,52.86,12.94,20.64,41.78,29.41,67.76,18.39,10.72,32.64,40.75,52.3,69.13,48.54,29.17-3.87,44.13-30.83,45.77-33.91,17.46,30,50.36,41,72.67,30.26C499,412.17,504.26,388.72,505,385c27.2,14.38,56.45,6.37,66.5-11.57,9-16,.11-35.34-1.15-38a82.48,82.48,0,0,0,33.84-24.94c3.73-4.69,8.74-11,10.93-19.67,6.18-24.46-15.32-47.33-18.32-50.43C598.35,239.27,617.41,224.29,615.86,199.64Z" transform="translate(-133.94 -1.26)"/><ellipse class="cls-13" cx="345.03" cy="139.91" rx="28.94" ry="21.94" transform="translate(-39.81 413.73) rotate(-69.71)"/><path class="cls-3" d="M365.6,147.52c3.46-9.36,2.92-18.94-.73-25.84a46.76,46.76,0,0,1-1.09,12,38.79,38.79,0,0,1-4.26,11.53c-1.83,3.15-5.43,9.34-12.85,12.61-2.9,1.28-10.95,4.83-17.7.39-6.4-4.22-6.78-12.47-6.81-13.51-.09,10.39,4.63,19.35,12.83,22.38C346.35,171.26,360.06,162.51,365.6,147.52Z" transform="translate(-133.94 -1.26)"/><path class="cls-14" d="M343.39,132.6l11.49-5.42c-1-3.68-3.14-6.61-6.32-8-6.67-2.81-15.24,2.41-19.15,11.67s-1.66,19,5,21.86,15.25-2.41,19.15-11.67a23.75,23.75,0,0,0,1.88-8.15Z" transform="translate(-133.94 -1.26)"/><ellipse class="cls-13" cx="465.09" cy="140.93" rx="21.94" ry="28.94" transform="translate(-153.95 168.8) rotate(-20.29)"/><path class="cls-3" d="M444.51,148.54c-3.46-9.35-2.92-18.93.74-25.83a46.72,46.72,0,0,0,1.08,12,38.68,38.68,0,0,0,4.27,11.53c1.83,3.14,5.42,9.33,12.85,12.61,2.89,1.27,10.95,4.82,17.69.38,6.4-4.22,6.79-12.46,6.82-13.5.08,10.38-4.63,19.35-12.83,22.38C463.76,172.28,450.06,163.54,444.51,148.54Z" transform="translate(-133.94 -1.26)"/><path class="cls-14" d="M468,133.17q1.89-1.93,3.92-3.9c1.52-1.47,3-2.87,4.5-4.22a12.63,12.63,0,0,0-7.63-5.62,11.15,11.15,0,0,0-5,0c-7,1.94-10.45,11.36-7.77,21,2.27,8.14,10.78,16,17.5,14,6.26-1.85,9-11.63,8.21-18.49a19.3,19.3,0,0,0-1.43-5.42Z" transform="translate(-133.94 -1.26)"/></g></g></svg>