<svg xmlns="http://www.w3.org/2000/svg" viewBox="0 0 623.54 796.49"><defs><style>.cls-1{isolation:isolate;}.cls-2{fill:#cad9dd;}.cls-10,.cls-3{fill:#fff;}.cls-3{opacity:0.24;}.cls-4{fill:#bbdaea;opacity:0.48;}.cls-4,.cls-6{mix-blend-mode:multiply;}.cls-5{fill:#ffdb94;}.cls-6{fill:#efd2bb;}.cls-7{fill:#e2ebed;}.cls-8{fill:#afc4c9;}.cls-9{fill:#d3e1e5;}.cls-11{fill:#3a3a3a;}</style></defs><g class="cls-1"><g id="Capa_1" data-name="Capa 1"><path class="cls-2" d="M234.17,41.77a79.77,79.77,0,0,0-38.72-16.14c-25.19-3.31-44.45,6.29-50.91,9.62-23.34,12-35.24,30.6-42.1,43.26a164.18,164.18,0,0,0-11,129.14c4.52,13.35,11,26.36,21.1,36.15,14.72,14.22,35.41,20.11,55.36,24.68,13.2,3,27.31,5.66,40,1,16.08-5.87,26-21.87,32.82-37.57a217.06,217.06,0,0,0,17.62-93.76A231.92,231.92,0,0,0,252,93.42a27.74,27.74,0,0,0,5.38-12C260.65,62.76,240.21,46.58,234.17,41.77Z" transform="translate(-83.04 -2.99)"/><path class="cls-3" d="M190.3,70.06c-22.42,2.45-42.13,19.24-51.68,40.51s-9.66,46.28-3.36,68.81c4.6,16.46,13.35,32.78,28,40.62,7.48,4,15.94,5.5,24.3,6.37,9.58,1,20,1,27.91-4.7,5.92-4.28,9.54-11.17,12.65-17.94,12.19-26.51,28.23-67.41,21.24-97.42C243.88,82.83,211.37,67.75,190.3,70.06Z" transform="translate(-83.04 -2.99)"/><path class="cls-4" d="M202.22,242.66c3.72-1.14,7.73-2.58,11.4-1.27,3.93,1.39,6.15,5.46,7.86,9.26,1.1,2.45,2.12,4.94,3.09,7.44a43.33,43.33,0,0,1-16.66,11.4c-12.72,4.65-26.83,2-40-1-19.95-4.57-40.64-10.46-55.36-24.68C102.39,234,95.94,221,91.42,207.65a161.69,161.69,0,0,1-8.31-55.81,120.85,120.85,0,0,0,16.11,46.77C120.1,233,163.78,254.49,202.22,242.66Z" transform="translate(-83.04 -2.99)"/><path class="cls-2" d="M555.46,41.77a79.77,79.77,0,0,1,38.72-16.14c25.19-3.31,44.45,6.29,50.91,9.62,23.34,12,35.24,30.6,42.1,43.26a164.14,164.14,0,0,1,11,129.14c-4.51,13.35-11,26.36-21.1,36.15-14.72,14.22-35.41,20.11-55.36,24.68-13.2,3-27.31,5.66-40,1-16.07-5.87-26-21.87-32.82-37.57a217.37,217.37,0,0,1-17.62-93.76,231,231,0,0,1,6.36-44.74,27.85,27.85,0,0,1-5.39-12C529,62.76,549.42,46.58,555.46,41.77Z" transform="translate(-83.04 -2.99)"/><path class="cls-3" d="M599.34,70.06c22.42,2.45,42.13,19.24,51.67,40.51s9.67,46.28,3.36,68.81c-4.6,16.46-13.35,32.78-28,40.62-7.47,4-15.94,5.5-24.3,6.37-9.58,1-20,1-27.9-4.7-5.93-4.28-9.55-11.17-12.66-17.94-12.19-26.51-28.23-67.41-21.24-97.42C545.75,82.83,578.26,67.75,599.34,70.06Z" transform="translate(-83.04 -2.99)"/><path class="cls-2" d="M167.41,306.77c-16.37-4-35.26-6-48.63,4.3-15.94,12.23-16.38,37.52-6,54.72s28.61,28,46.59,36.94a511.09,511.09,0,0,0,82.23,32.5,570,570,0,0,0,25.92-54.67c2.83-6.89,11.14-20.7,8.42-27.51-2-5.08-14.13-11.27-19.09-13.47-12.19-5.41-25.05-8.07-37.29-13.94A270.13,270.13,0,0,0,167.41,306.77Z" transform="translate(-83.04 -2.99)"/><path class="cls-4" d="M118.43,349.19c9.31,13.73,24.53,22.08,39.39,29.43A763.22,763.22,0,0,0,251,417.27q-4.53,9.15-9.38,18.13a511.35,511.35,0,0,1-82.22-32.5c-18-9-36.21-19.73-46.59-36.94-8.58-14.22-9.76-33.95-.91-47.28C109.85,328.84,112.49,340.42,118.43,349.19Z" transform="translate(-83.04 -2.99)"/><path class="cls-2" d="M618,312.14c16.37-4,35.26-6,48.63,4.3,15.94,12.24,16.38,37.52,6,54.73S644,399.14,626,408.11a512.28,512.28,0,0,1-82.22,32.5,568.71,568.71,0,0,1-25.92-54.67c-2.84-6.9-11.15-20.7-8.43-27.51,2-5.09,14.13-11.27,19.09-13.47,12.19-5.41,25.05-8.07,37.29-13.94A269.51,269.51,0,0,1,618,312.14Z" transform="translate(-83.04 -2.99)"/><path class="cls-4" d="M667,354.4c-9.3,13.73-24.52,22.08-39.38,29.43a767.06,767.06,0,0,1-93.16,38.65q4.53,9.15,9.38,18.13A512.28,512.28,0,0,0,626,408.11c18-9,36.21-19.74,46.59-36.94,8.58-14.22,9.76-33.95.91-47.28C675.57,334.05,672.93,345.63,667,354.4Z" transform="translate(-83.04 -2.99)"/><path class="cls-5" d="M493.86,799.48H286.39q5.83-252.91,11.66-505.84H483.37Q488.62,546.56,493.86,799.48Z" transform="translate(-83.04 -2.99)"/><path class="cls-6" d="M489.59,593.63a37.93,37.93,0,0,0-8.84-1.49L291.53,576.58Q290.3,629.77,289.08,683a282,282,0,0,0,165.57,9.84q-.27,53.4,4.27,106.67h34.94Q491.73,696.57,489.59,593.63Z" transform="translate(-83.04 -2.99)"/><path class="cls-2" d="M395.12,179.51h0A159.1,159.1,0,0,0,236,338.61q-7,140.75-14,281.48a384.86,384.86,0,0,0,359,2.34q-13.39-141.91-26.8-283.82A159.1,159.1,0,0,0,395.12,179.51Z" transform="translate(-83.04 -2.99)"/><path class="cls-7" d="M509.13,533.78C496.77,505.18,481,477,456.37,457.83A115.49,115.49,0,0,0,296.51,475.3c-8.1,9.77-14.54,20.83-20,32.27C257.88,546.22,250,588.84,245.7,631.72a384.29,384.29,0,0,0,295.46,8.53A483.46,483.46,0,0,0,509.13,533.78Z" transform="translate(-83.04 -2.99)"/><path class="cls-8" d="M545.37,612.75c-1.92.13-3.87,1.33-5.62,2.12s-3.34,1.47-5,2.26-3.19,1.49-4.75,2.3c-.78.41-1.56.81-2.31,1.26a5.23,5.23,0,0,0-2.35,1.92,1.92,1.92,0,0,0,1.13,2.78c1.65.48,3.8-.6,5.35-1.15,1.72-.61,3.4-1.31,5.09-2s3.48-1.45,5.22-2.19,3.85-1.3,5.2-2.56C549,615.91,547.79,612.57,545.37,612.75Z" transform="translate(-83.04 -2.99)"/><path class="cls-8" d="M523.44,547.17c-1.82.07-3.38,1.51-4.85,2.49-1.28.85-2.57,1.7-3.84,2.56-2.67,1.83-5.41,3.58-7.92,5.63a2.41,2.41,0,0,0-.63,2.37,2.46,2.46,0,0,0,1,1.37l.12.09a2.41,2.41,0,0,0,2.46,0c2.72-1.41,5.27-3.17,7.86-4.81l3.74-2.42,1.87-1.21a6,6,0,0,0,2.43-2.14C526.5,549.41,525.56,547.1,523.44,547.17Z" transform="translate(-83.04 -2.99)"/><path class="cls-8" d="M499.15,495.41c-1.23.34-1.82,1.3-2.7,2.11-.31.29-.64.56-1,.83l-.09.07-.64.47c-1.61,1.17-3.18,2.37-4.69,3.69a47,47,0,0,0-4,4,23.32,23.32,0,0,0-2,2.46c-.24.35-.47.71-.7,1.07a7.63,7.63,0,0,0-.6,1.52c-.45,1.18,1,2,2,1.51a8,8,0,0,0,1.24-.63l1.13-.83c.86-.62,1.67-1.3,2.49-2,1.45-1.18,2.71-2.17,4.18-3.25s3-2.08,4.48-3.14c1.69-1.21,4.35-2.95,4.3-5.28A2.71,2.71,0,0,0,499.15,495.41Z" transform="translate(-83.04 -2.99)"/><path class="cls-8" d="M465.7,451.38a2.69,2.69,0,0,0-2.92-.2,6.29,6.29,0,0,0-2,2l-1.57,1.93c-1.13,1.38-2.27,2.76-3.34,4.19-1,1.27-2,2.53-2.86,3.84a14.7,14.7,0,0,0-2.52,4.5,1.54,1.54,0,0,0,2.24,1.72,14.94,14.94,0,0,0,3.89-3.25c1.16-1.17,2.26-2.41,3.38-3.63s2.11-2.42,3.15-3.64l1.6-1.9a7.52,7.52,0,0,0,1.91-2.81A2.67,2.67,0,0,0,465.7,451.38Z" transform="translate(-83.04 -2.99)"/><path class="cls-8" d="M412.2,426.8a2.55,2.55,0,0,0-5-.68,11.1,11.1,0,0,0-.41,2.77c-.07.7-.15,1.4-.2,2.1-.12,1.57-.16,3.16-.2,4.73s0,3,.07,4.57c0,.82.14,1.62.25,2.43a4.18,4.18,0,0,0,1.07,2.32,1,1,0,0,0,1.42,0,4.34,4.34,0,0,0,1.13-2.32c.14-.75.25-1.5.34-2.25.16-1.53.36-3.05.52-4.57s.36-3,.55-4.56c.09-.7.16-1.4.24-2.1A10.66,10.66,0,0,0,412.2,426.8Z" transform="translate(-83.04 -2.99)"/><path class="cls-8" d="M355.51,443.53c-.53-1.6-1.05-3.2-1.6-4.79s-1.1-3.19-1.66-4.78a26,26,0,0,0-1.94-5.2,2.6,2.6,0,0,0-3.23-1.06,2.65,2.65,0,0,0-1.5,3.06,11.92,11.92,0,0,0,.85,2.48c.31.81.63,1.63.94,2.45q.9,2.37,1.81,4.74c.61,1.58,1.25,3.14,1.88,4.72a16.39,16.39,0,0,0,2.52,4.9c1.1,1.24,3.11.21,3.15-1.31A16,16,0,0,0,355.51,443.53Z" transform="translate(-83.04 -2.99)"/><path class="cls-8" d="M310.59,471a17.61,17.61,0,0,0-4-3l-3.87-2.53L298.86,463a43.48,43.48,0,0,0-4-2.56,2.59,2.59,0,0,0-3.5.92,2.63,2.63,0,0,0,.91,3.5c1.27.95,2.71,1.71,4.06,2.53l3.94,2.4,3.95,2.4a17.19,17.19,0,0,0,4.45,2.23A2,2,0,0,0,310.59,471Z" transform="translate(-83.04 -2.99)"/><path class="cls-8" d="M291.5,506.11c-.94-1.57-2.88-2.6-4.39-3.55s-3-1.81-4.49-2.65-3.05-1.66-4.6-2.45a38.1,38.1,0,0,0-5.17-2.44c-2.84-.94-4.53,3.3-2,4.77,1.53.89,3.29,1.49,4.9,2.25s3,1.46,4.53,2.23,3,1.54,4.47,2.34,3.36,2,5.22,2.18A1.79,1.79,0,0,0,291.5,506.11Z" transform="translate(-83.04 -2.99)"/><path class="cls-8" d="M271.7,551.59a16.7,16.7,0,0,0-5.41-2.32c-1.94-.61-3.89-1.21-5.82-1.86-3.8-1.29-7.57-2.65-11.28-4.2-1.37-.58-3,.62-3.39,1.93a2.82,2.82,0,0,0,1.93,3.39,113.37,113.37,0,0,0,11.38,3.81c1.9.52,3.8,1,5.73,1.4s4.17,1,6.17.46A1.57,1.57,0,0,0,271.7,551.59Z" transform="translate(-83.04 -2.99)"/><path class="cls-4" d="M587.42,242.66c-3.73-1.14-7.74-2.58-11.41-1.27-3.92,1.39-6.15,5.46-7.86,9.26-1.1,2.45-2.12,4.94-3.09,7.44a43.33,43.33,0,0,0,16.66,11.4c12.72,4.65,26.83,2,40-1,20-4.57,40.64-10.46,55.36-24.68,10.13-9.79,16.59-22.8,21.1-36.15a161.21,161.21,0,0,0,8.31-55.81,120.85,120.85,0,0,1-16.11,46.77C669.53,233,625.85,254.49,587.42,242.66Z" transform="translate(-83.04 -2.99)"/><path class="cls-8" d="M259.11,607c-.32-1.79-3.39-2.5-4.86-3-1.71-.54-3.45-1.06-5.2-1.47s-3.51-.8-5.28-1.15a31.55,31.55,0,0,0-6-1c-2.9,0-3.36,4.09-.67,4.95a45.29,45.29,0,0,0,5.7,1c2,.36,3.92.8,5.87,1.18s3.79.81,5.7,1.14C255.84,609,259.6,609.74,259.11,607Z" transform="translate(-83.04 -2.99)"/><path class="cls-4" d="M581,622.43q-13.39-141.91-26.8-283.82a158.41,158.41,0,0,0-25.4-86.26,32.37,32.37,0,0,0-4.41,1c-3.84,1.07-138.25,72.37-240.18,71.85a221.78,221.78,0,0,1-47.1-5.39q-4.62,91.05-9.22,182.11a283.76,283.76,0,0,0,90.94-9.57c25-6.87,75.84-21.55,118.32-67.71a221.08,221.08,0,0,0,44.09-72.06l29-2.15c3.8,49.75,6.18,102.92,6.45,159.17.23,49.19-1.18,96-3.76,140.19A388.69,388.69,0,0,0,581,622.43Z" transform="translate(-83.04 -2.99)"/><ellipse class="cls-2" cx="314.23" cy="198.47" rx="199.47" ry="198.47"/><path class="cls-4" d="M397.27,399.92c110.17,0,199.47-88.85,199.47-198.46,0-73.83-40.52-138.24-100.64-172.43A207,207,0,0,1,563,155a218.51,218.51,0,0,1-4.27,82.62c-11-15.78-40.51-56.51-52.13-51.16s-10.35,59.12,18.35,73.19c9.46,4.63,19.52,3.79,26.62,2.21a166.6,166.6,0,0,1-30.21,52.26c-5.7,6.66-33.09,37.2-80.59,51.8-34.16,10.51-61.91,7-93.35,3A346,346,0,0,1,260.55,346,199.3,199.3,0,0,0,397.27,399.92Z" transform="translate(-83.04 -2.99)"/><path class="cls-3" d="M282.18,64.09c-3.11,4-5.95,10.22-2.61,14,2.82,3.15,7.6,1.59,11.29-.13a671.13,671.13,0,0,1,69-27.69c7-2.38,14.57-5,19.1-11.36a10.87,10.87,0,0,0,2.24-5.9c.1-3.8-2.62-7-5.59-9-13.81-9.07-33.3,1.21-47.42,5.32C310.66,34.42,293.8,49.25,282.18,64.09Z" transform="translate(-83.04 -2.99)"/><path class="cls-9" d="M292.64,329.65c-10.57,32.81-39.08,51.33-57,63A169.17,169.17,0,0,1,169,417.84a59.65,59.65,0,0,0,11.79,66.65c6.73.62,16.94,1.35,29.38,1.33,49.17-.07,85.55-11.73,96.13-15.32a317,317,0,0,0,44.05-19.08c9.68-4.92,29.95-15.22,48.39-29.17,19.74-14.91,51.4-38.85,64.22-80.44,2.93-9.53,18.4-59.7-9.68-92.49-14.73-17.19-35.13-22.25-49.47-25.81-14-3.47-39.46-9.78-64.53,3.23-19.22,10-28.61,26.32-32.41,33.12C291.52,287.43,302.19,300,292.64,329.65Z" transform="translate(-83.04 -2.99)"/><path class="cls-4" d="M423.9,374.91c-16.82,17.67-38.22,30.35-60.21,40.92a435.14,435.14,0,0,1-197.94,42.49,60.43,60.43,0,0,0,15.06,26.17c6.73.62,16.94,1.35,29.38,1.33,49.17-.07,85.55-11.73,96.13-15.32a317,317,0,0,0,44.05-19.08c9.68-4.92,29.95-15.22,48.39-29.17,19.74-14.91,51.4-38.85,64.22-80.44,2.81-9.13,17.12-55.57-6.39-88.28C466.38,296,454,343.26,423.9,374.91Z" transform="translate(-83.04 -2.99)"/><path class="cls-8" d="M383.32,203.82c-.34-1.76-3-1.62-3.44,0-1,3.68-.74,7.66-1,11.45-.33,4.19-1.35,8.54-.89,12.72.17,1.51,2.6,2.19,2.91.4l0-.08c1.41-3.54,1.64-7.43,2-11.22C383.36,212.75,384.15,208.13,383.32,203.82Z" transform="translate(-83.04 -2.99)"/><path class="cls-8" d="M431.74,217.47c-3,2-4,5.45-5.27,8.64-2,4.94-4,9.9-5.8,14.91-.62,1.67,2.13,2.85,2.89,1.22,3.42-7.34,5.95-15.71,10.65-22.3C435.25,218.47,433.2,216.47,431.74,217.47Z" transform="translate(-83.04 -2.99)"/><path class="cls-8" d="M338,234.55c-2-3.09-4.14-6.05-6-9.21-1.75-2.93-3.08-6.2-5.27-8.81-1.71-2.05-4.75.18-4.22,2.45.82,3.49,3.13,6.76,5,9.78a76.34,76.34,0,0,0,6.3,9C335.78,240.13,339.67,237.09,338,234.55Z" transform="translate(-83.04 -2.99)"/><path class="cls-3" d="M293.81,365.59c-11.22,18.23-27.46,34-47.62,41.23-16.17,5.77-34.83,6.16-48.28,16.85,3.3,5.25,10.24,6.67,16.43,7.11,32.78,2.3,65.85-9.72,91.28-30.53S349,350.3,358.92,319c3.49-11,5.2-25-3.74-32.4-6.48-5.33-16.47-4.55-23.54,0C309,301,307.5,343.33,293.81,365.59Z" transform="translate(-83.04 -2.99)"/><path class="cls-4" d="M270.9,256.65c5.42-2.7,8.23-6.47,12.37-12a62.93,62.93,0,0,0,12-30.07,53.81,53.81,0,0,0-2.4-23.86c-2-5.79-7.07-20.47-18.74-23.33-6.94-1.7-13.12,1.54-17.19,3.69-16.89,8.88-22.69,27.41-28.22,45.1-3.53,11.27-3.49,16.3-2.23,20.79,1.91,6.76,6.54,12.8,13.75,17.22C248.56,259.25,260.68,261.71,270.9,256.65Z" transform="translate(-83.04 -2.99)"/><ellipse class="cls-10" cx="537.89" cy="207.23" rx="33.78" ry="44.57" transform="translate(-107.9 79.37) rotate(-8.56)"/><path class="cls-4" d="M504.48,212.26c-2.29-15.19,1.53-29.47,9.2-38.73a72.05,72.05,0,0,0-2.11,18.39,59.65,59.65,0,0,0,2.82,18.72c1.77,5.32,5.26,15.78,15.43,23,4,2.83,15,10.71,26.55,6.13,11-4.36,14.14-16.67,14.51-18.23-3.12,15.69-13,27.73-26.36,29.73C526.07,254.09,508.15,236.6,504.48,212.26Z" transform="translate(-83.04 -2.99)"/><path class="cls-11" d="M544,196.47l13.29-12.79A18.94,18.94,0,0,0,547,175.49a18.41,18.41,0,0,0-7.73-.6c-11,2.05-17.54,16.05-14.7,31.26s14,25.88,25,23.83,16.54-19.13,14.69-31.26a28.17,28.17,0,0,0-1.93-6.78Z" transform="translate(-83.04 -2.99)"/><ellipse class="cls-10" cx="254.43" cy="207.23" rx="44.57" ry="33.78" transform="translate(-71.4 425) rotate(-81.44)"/><path class="cls-4" d="M287.84,212.26c2.29-15.19-1.52-29.47-9.2-38.73a71.6,71.6,0,0,1,2.11,18.39,59.36,59.36,0,0,1-2.82,18.72c-1.77,5.32-5.25,15.78-15.42,23-4,2.83-15,10.71-26.56,6.13-11-4.36-14.13-16.67-14.51-18.23,3.13,15.69,13,27.73,26.36,29.73C266.25,254.09,284.18,236.6,287.84,212.26Z" transform="translate(-83.04 -2.99)"/><path class="cls-11" d="M249.68,196.73q7.8-5.89,15.62-11.77c-2.64-5.25-6.81-9-12-10-10.94-2.16-22.23,8.4-25.22,23.59s3.45,29.23,14.39,31.39,22.24-8.41,25.22-23.59a36.68,36.68,0,0,0,.29-12.88Z" transform="translate(-83.04 -2.99)"/><path class="cls-8" d="M277.79,95.09a4.41,4.41,0,0,0-5.09-.65,48,48,0,0,0-15.78,12.68c-3.54,4.37-8.09,10.85-7.58,16.76a2.33,2.33,0,0,0,3.93,1.63c3.82-3.88,5.83-9.46,9.54-13.59a44.18,44.18,0,0,1,14.13-10.24A4.18,4.18,0,0,0,279,98.06,3.36,3.36,0,0,0,277.79,95.09Z" transform="translate(-83.04 -2.99)"/><path class="cls-8" d="M539.05,106.24a34.35,34.35,0,0,0-13.19-8.37A4.31,4.31,0,0,0,521.67,99l-.51.45a3.16,3.16,0,0,0-.84,3.15c1,2.49,2.06,3.12,4.5,3.94a30.6,30.6,0,0,1,7.1,3.6c3.86,2.56,8.5,5.8,10.88,9.75a1.24,1.24,0,0,0,1.37.55l.62-.21a2.16,2.16,0,0,0,1.54-2C546.4,113.57,542.13,109.28,539.05,106.24Z" transform="translate(-83.04 -2.99)"/></g></g></svg>