<svg xmlns="http://www.w3.org/2000/svg" xmlns:xlink="http://www.w3.org/1999/xlink" viewBox="0 0 790.55 731.84"><defs><style>.cls-1{isolation:isolate;}.cls-2{fill:url(#Безымянный_градиент_29);}.cls-3{fill:url(#Безымянный_градиент_29-2);}.cls-4{fill:#d6beeb;}.cls-10,.cls-4{mix-blend-mode:multiply;}.cls-5{fill:url(#Безымянный_градиент_29-3);}.cls-6{fill:url(#Безымянный_градиент_29-4);}.cls-7{fill:url(#Безымянный_градиент_27);}.cls-8{fill:url(#Безымянный_градиент_29-5);}.cls-9{fill:url(#Безымянный_градиент_2);}.cls-10{fill:#d2b9e6;}.cls-11{fill:url(#Безымянный_градиент_22);}.cls-12{fill:url(#Безымянный_градиент_22-2);}.cls-13{fill:url(#Безымянный_градиент_2-2);}.cls-14{fill:url(#Безымянный_градиент_29-6);}.cls-15,.cls-17,.cls-24,.cls-26,.cls-27,.cls-28,.cls-29,.cls-30{mix-blend-mode:screen;}.cls-15{fill:url(#Безымянный_градиент_3);}.cls-16{fill:#f5ebda;}.cls-17{fill:url(#Безымянный_градиент_21);}.cls-18{fill:#fff4f0;}.cls-19{fill:url(#Безымянный_градиент_29-7);}.cls-20{fill:url(#Безымянный_градиент_29-8);}.cls-21{fill:url(#Безымянный_градиент_29-9);}.cls-22{fill:url(#Безымянный_градиент_29-10);}.cls-23{fill:url(#Безымянный_градиент_2-3);}.cls-24{fill:url(#Безымянный_градиент_3-2);}.cls-25{fill:url(#Безымянный_градиент_29-11);}.cls-26{fill:url(#Безымянный_градиент_21-2);}.cls-27{fill:url(#Безымянный_градиент_21-3);}.cls-28{fill:url(#Безымянный_градиент_21-4);}.cls-29{fill:url(#Безымянный_градиент_21-5);}.cls-30{fill:url(#Безымянный_градиент_21-6);}</style><linearGradient id="Безымянный_градиент_29" x1="446.16" y1="837.07" x2="605.43" y2="500.08" gradientTransform="matrix(0.93, 0.37, -0.37, 0.93, 108.31, -79.85)" gradientUnits="userSpaceOnUse"><stop offset="0" stop-color="#f0dcc5"/><stop offset="0.37" stop-color="#d7a5a9"/><stop offset="1" stop-color="#a84076"/></linearGradient><linearGradient id="Безымянный_градиент_29-2" x1="180" y1="412.51" x2="372.02" y2="923.27" xlink:href="#Безымянный_градиент_29"/><linearGradient id="Безымянный_градиент_29-3" x1="397.74" y1="266.12" x2="726.67" y2="1165.62" xlink:href="#Безымянный_градиент_29"/><linearGradient id="Безымянный_градиент_29-4" x1="275.72" y1="310.74" x2="604.65" y2="1210.23" xlink:href="#Безымянный_градиент_29"/><linearGradient id="Безымянный_градиент_27" x1="295.95" y1="301.46" x2="288.56" y2="252.19" gradientTransform="matrix(0.93, 0.37, -0.37, 0.93, 108.31, -79.85)" gradientUnits="userSpaceOnUse"><stop offset="0" stop-color="#ad2b55"/><stop offset="1" stop-color="#4d1169"/></linearGradient><linearGradient id="Безымянный_градиент_29-5" x1="197.8" y1="412.14" x2="192.57" y2="303.3" xlink:href="#Безымянный_градиент_29"/><linearGradient id="Безымянный_градиент_2" x1="83.42" y1="158.37" x2="291.62" y2="158.37" gradientTransform="matrix(0.93, 0.37, -0.37, 0.93, 108.31, -79.85)" gradientUnits="userSpaceOnUse"><stop offset="0" stop-color="#f7748e"/><stop offset="1" stop-color="#cf40c0"/></linearGradient><linearGradient id="Безымянный_градиент_22" x1="187.49" y1="65.55" x2="290.34" y2="234.16" gradientTransform="matrix(0.93, 0.37, -0.37, 0.93, 108.31, -79.85)" gradientUnits="userSpaceOnUse"><stop offset="0" stop-color="#ffbf29"/><stop offset="1" stop-color="#cc5916"/></linearGradient><linearGradient id="Безымянный_градиент_22-2" x1="148.23" y1="15.28" x2="264.75" y2="186.46" xlink:href="#Безымянный_градиент_22"/><linearGradient id="Безымянный_градиент_2-2" x1="184.06" y1="187.21" x2="466.63" y2="187.21" xlink:href="#Безымянный_градиент_2"/><linearGradient id="Безымянный_градиент_29-6" x1="328.69" y1="115.53" x2="381.32" y2="537.49" xlink:href="#Безымянный_градиент_29"/><linearGradient id="Безымянный_градиент_3" x1="286.72" y1="300.02" x2="295.83" y2="227.57" gradientTransform="matrix(0.93, 0.37, -0.37, 0.93, 108.31, -79.85)" gradientUnits="userSpaceOnUse"><stop offset="0" stop-color="#b05117"/><stop offset="1"/></linearGradient><linearGradient id="Безымянный_градиент_21" x1="173.67" y1="20.38" x2="199.73" y2="162.36" gradientTransform="matrix(0.93, 0.37, -0.37, 0.93, 108.31, -79.85)" gradientUnits="userSpaceOnUse"><stop offset="0" stop-color="#f0a046"/><stop offset="1"/></linearGradient><linearGradient id="Безымянный_градиент_29-7" x1="333.95" y1="26.12" x2="352.7" y2="306.67" xlink:href="#Безымянный_градиент_29"/><linearGradient id="Безымянный_градиент_29-8" x1="104.61" y1="192.54" x2="244.47" y2="420.65" xlink:href="#Безымянный_градиент_29"/><linearGradient id="Безымянный_градиент_29-9" x1="351.83" y1="583.34" x2="566.08" y2="997.46" xlink:href="#Безымянный_градиент_29"/><linearGradient id="Безымянный_градиент_29-10" x1="648.18" y1="430.09" x2="862.41" y2="844.19" xlink:href="#Безымянный_градиент_29"/><linearGradient id="Безымянный_градиент_2-3" x1="620.67" y1="161.84" x2="769.08" y2="412.09" xlink:href="#Безымянный_градиент_2"/><linearGradient id="Безымянный_градиент_3-2" x1="588.93" y1="115.64" x2="699.23" y2="286.39" xlink:href="#Безымянный_градиент_3"/><linearGradient id="Безымянный_градиент_29-11" x1="316.43" y1="284.01" x2="434.57" y2="590.59" xlink:href="#Безымянный_градиент_29"/><linearGradient id="Безымянный_градиент_21-2" x1="172.72" y1="188.97" x2="160.24" y2="457.1" xlink:href="#Безымянный_градиент_21"/><linearGradient id="Безымянный_градиент_21-3" x1="319.63" y1="41.14" x2="311.91" y2="207.08" xlink:href="#Безымянный_градиент_21"/><linearGradient id="Безымянный_градиент_21-4" x1="178.9" y1="405.16" x2="163.99" y2="725.67" xlink:href="#Безымянный_градиент_21"/><linearGradient id="Безымянный_градиент_21-5" x1="351.65" y1="493.05" x2="336.63" y2="816.07" xlink:href="#Безымянный_градиент_21"/><linearGradient id="Безымянный_градиент_21-6" x1="601.02" y1="450.83" x2="592.68" y2="630.21" xlink:href="#Безымянный_градиент_21"/></defs><g class="cls-1"><g id="Capa_1" data-name="Capa 1"><path class="cls-2" d="M338.27,696.86c-.58,6.91-.33,14.29,3.47,20.45,14.47,23.45,52.73,26.08,77.09,23.8,6.85-.64,13.77-2.52,18.7-6.87,8.86-7.82,8.76-20.75,6.57-31.62-4.1-20.28-9.35-40.88-15.06-60.89-2-6.93-4.39-14.46-10.62-18.7-9.64-6.55-22.63-1.76-31.94,4.27C361.56,643.47,340.74,667.36,338.27,696.86Z" transform="translate(-6.28 -12.78)"/><path class="cls-3" d="M227.51,529.19c-4.67,2.4-10.25,1-15.25-.63a222.8,222.8,0,0,1-85.69-51.62c5.88,31.55,11.78,63.68,8,95.48-1.61,13.16-6.41,28-18.77,32.76-7.8,3-16.54,1.08-24.45-1.51a151.4,151.4,0,0,1-63.82-41.06A137.12,137.12,0,0,1,18.58,552c-6.89-9-12.93-19.54-12.25-30.85.5-8.63,4.94-16.5,9.41-23.93,24.91-41.14,56.34-80.22,99.08-102.2,19.64-10.15,41.33,3.65,58.61,15.15,1.06.72,2.11,1.45,3.14,2.11,1.18.82,2.37,1.6,3.54,2.43a191.46,191.46,0,0,1,45.81,45.59c4.77,6.79,11.33,14.94,12.81,23.12,1.69,9.5-1,21.85-2.93,31.23C234.61,520.31,232.62,526.55,227.51,529.19Z" transform="translate(-6.28 -12.78)"/><path class="cls-4" d="M227.51,529.19c-4.67,2.4-10.25,1-15.25-.63a222.8,222.8,0,0,1-85.69-51.62c5.88,31.55,11.78,63.68,8,95.48-1.61,13.16-6.41,28-18.77,32.76-7.8,3-16.54,1.08-24.45-1.51a151.4,151.4,0,0,1-63.82-41.06c2.73,1.48,5.34,3.39,7.39,4.61,7.31,4.37,14.75,8.33,22.94,10.88,13.61,4.27,29.09,4.31,41.4-2.83C119,563.77,123.8,540,125.42,519.15a234.88,234.88,0,0,0-5.23-70.73c.65,2.81,7.64,7.45,10,9.45,11.31,9.49,25.13,17.61,39.26,21.94,2.79.85,5.74,1.58,8.58,1,7.92-1.72,7.68-13.47,7.14-19.61a186.65,186.65,0,0,0-11.77-51c1.06.72,2.11,1.45,3.14,2.11,1.18.82,2.37,1.6,3.54,2.43a191.46,191.46,0,0,1,45.81,45.59c4.77,6.79,11.33,14.94,12.81,23.12,1.69,9.5-1,21.85-2.93,31.23C234.61,520.31,232.62,526.55,227.51,529.19Z" transform="translate(-6.28 -12.78)"/><path class="cls-5" d="M502.69,608.44c-22,20-47,37.88-75.46,45.84-29.32,8.09-60.82,5.16-89.52-4.47-59.7-20-106.27-66.8-128.38-124.57a211.19,211.19,0,0,1-13.62-60.72c-2.27-31.53,5.9-61,29.58-82.95,22-20.37,52.62-30.85,82.2-28.05,36.37,3.41,69.92,25,90.44,55.3a70.49,70.49,0,0,1,3.56,6.2c21.61-9.37,51.18-12.72,74.43-10.76,29.48,2.51,52.84,20,67.07,43.79,15.39,25.63,20.27,58.65,11.06,88.24C545.16,564.81,524.75,588.34,502.69,608.44Z" transform="translate(-6.28 -12.78)"/><path class="cls-4" d="M502.69,608.44c-22,20-47,37.88-75.46,45.84-29.32,8.09-60.82,5.16-89.52-4.47-59.7-20-106.27-66.8-128.38-124.57,7.93,1.78,16.27,10.64,26.25,17.71,20.3,14.44,41.31,27.87,63.88,38.51,34.63,16.35,73.43,25.93,111.42,21s75-25.79,93.7-59.23A96.47,96.47,0,0,0,516,485.88c-1.27-11.44-10.54-21.87-10.74-33.47-.36-21.88,22.58-9,37.7-4.36,15.39,25.63,20.27,58.65,11.06,88.24C545.16,564.81,524.75,588.34,502.69,608.44Z" transform="translate(-6.28 -12.78)"/><path class="cls-6" d="M343.36,421c-26.75,28.22-91.17,73.81-131,46-20.1-14.05-12.27-36.18-5.25-55.47a177,177,0,0,1,9.12-20.58c2-3.89,4.05-7.66,6.35-11.4,2.55-4.27,11.19-21.12,17.19-26,0-.05.06,0,.08-.07a5.74,5.74,0,0,1,2.39-1.23C219,355.85,195.38,358.71,172,356s-46.64-11.68-62.93-28.57-24.41-42.76-16.65-65c7.67-21.88,27.42-37.82,44.68-52.16a262.86,262.86,0,0,1,55-35.4c39-18.45,83.21-27.19,126.19-21.29,28.82,4,56,14.78,74.75,36,14.9,16.76,21.6,39.64,21.94,62s-5.23,44.53-12.44,65.77C389.6,355.29,370.93,391.85,343.36,421Z" transform="translate(-6.28 -12.78)"/><path class="cls-4" d="M301.82,172.68c-1.33,3.69.94,7.91,4.24,10s7.37,2.61,11.28,2.93a193,193,0,0,0,53.25-3.1,120.27,120.27,0,0,1,41.56,94.64c14.81-22.92,15.07-53.72,3.08-78.23s-35.12-42.67-61-51.33-54.23-8.33-80.77-2c-11.75,2.81-23.35,6.82-33.82,12.92-10,5.81-15.15,13.33-22.65,21.49C242.44,192.94,278.36,187.06,301.82,172.68Z" transform="translate(-6.28 -12.78)"/><path class="cls-7" d="M261.82,277.51c-1.24,3.42-1.92,7.59.4,10.4C274.63,303,312.8,264.55,301.63,253c-4.2-4.35-10.22-3.38-15.21-1.17C276.6,256.16,265.54,267.31,261.82,277.51Z" transform="translate(-6.28 -12.78)"/><path class="cls-8" d="M157.7,313.06a37.89,37.89,0,0,0,12.84-3.73c2.72-1.36,5.4-3.19,6.64-5.95s.43-6.63-2.35-7.84a8,8,0,0,0-5.06,0A35.3,35.3,0,0,0,154.06,304c-.95.88-1.22,1.22-2.11,2.17a1.84,1.84,0,0,1-1.69-2.05,4.72,4.72,0,0,1,1.38-2.63,30.9,30.9,0,0,1,15.78-9.68c3.4-.85,7.13-1.08,10.33.36s5.66,4.91,5.07,8.37c-.55,3.16-3.32,5.43-6.1,7A40.67,40.67,0,0,1,157.7,313.06Z" transform="translate(-6.28 -12.78)"/><path class="cls-9" d="M327.78,155.77a41.63,41.63,0,0,1-6.88,6.33c-8.16,6-18.46,9.37-28.53,11.61-53.71,12-116.13,1.33-148.86-43.62a107.83,107.83,0,0,1-12.29-21.82c-2.12-5-3.77-10.89-1-15.54,2.64-4.48,8.42-5.93,13.58-6.69,25.72-3.93,49.51-1,73.61,5.5,5.19,1.37,10.36,2.94,15.58,4.63a440.37,440.37,0,0,1,75.67,32.6c5.53,3,11,6.14,16.39,9.39,2.51,1.51,5.1,3.2,6.22,5.86C332.89,148,330.62,152.49,327.78,155.77Z" transform="translate(-6.28 -12.78)"/><path class="cls-10" d="M320.9,162.1c-8.16,6-18.46,9.37-28.53,11.61-53.71,12-116.13,1.33-148.86-43.62,10.29,3.9,20.35,8.68,31.12,11.11,15.75,3.55,33.86.71,43.17-13.65,6.5-10,4.54-24.15-.4-36,5.19,1.37,10.36,2.94,15.58,4.63a440.37,440.37,0,0,1,75.67,32.6c1.21,1.77,2.35,3.61,3.42,5.48A70.56,70.56,0,0,1,320.9,162.1Z" transform="translate(-6.28 -12.78)"/><path class="cls-11" d="M275.06,159c-9.06.05-21.67-2.94-29.59-7.76-2.92-1.77-5-13.5-5.71-20.43-.55-5.69-1-11.39-1.24-17.07a326.32,326.32,0,0,1,1.35-49.52A333.79,333.79,0,0,1,246,26.46c1.25-5.55,3.53-12,9-13.42,6.6-1.69,11.94,5.21,15,11.27a346.76,346.76,0,0,1,17.73,42.51c5.5,15.69,10.23,31.65,15,47.57,2.35,8,4.75,16.43,2.55,24.5C301.82,151.5,288,158.86,275.06,159Z" transform="translate(-6.28 -12.78)"/><path class="cls-12" d="M275.06,159c-9.06.05-21.67-2.94-29.59-7.76-2.92-1.77-5-13.5-5.71-20.43-.55-5.69-1-11.39-1.24-17.07,2.44,2.2,4.83,4.54,7.39,6.57,5.46,4.37,13,7.63,19.42,4.85,5.8-2.52,8.64-9,10.78-14.92a267.38,267.38,0,0,0,11.6-43.42c5.5,15.69,10.23,31.65,15,47.57,2.35,8,4.75,16.43,2.55,24.5C301.82,151.5,288,158.86,275.06,159Z" transform="translate(-6.28 -12.78)"/><path class="cls-13" d="M453.17,317a102.78,102.78,0,0,1-33,31.48,101.05,101.05,0,0,1-27.4,11.49c-4.3,1.09-8.45-5.44-6.48-9.53,10.89-22.42,17-42.8,22.39-67.17s3.61-50-6.29-72.93-33.24-37.87-56.4-43.46a57.58,57.58,0,0,1-22.66,11.39c-2.18.53-4.65.91-6.63-.23-2.35-1.39-3.12-4.54-2.5-7.18a16.63,16.63,0,0,1,3.37-6.58,85.39,85.39,0,0,1-46.1,12.65c-19-.44-37.18-8.16-48.1-25.84-2.87-4.64-5-11-1.71-15.34,2.84-3.94,8.44-4.38,13.27-4.34a217.5,217.5,0,0,1,50.94,6.81c-6.52-1.68-19.64-9.42-21.41-16.47-2.07-8.41,9.76-2.62,13.93-.88a55.88,55.88,0,0,1,20.81,15.52,96.59,96.59,0,0,1,7.07-53.06c1.38-3,3.2-6.17,6.36-7.1,6.86-2,17.47,6.66,23.12,9.76,6.6,3.58,13.08,7.47,19.3,11.62,2.16,1.47,4.32,2.94,6.41,4.44A207.26,207.26,0,0,1,405,143.74c21.16,27.49,34.62,61.29,35.57,95.91a139.33,139.33,0,0,1-5.18,41.82c-3.82,13.53-10.06,25.59-16.21,38.2.3-.24.62-.53,1-.76a86.69,86.69,0,0,1,24.7-13.83c3.18-1.13,7.12-2,9.51.38C457.42,308.4,455.47,313.48,453.17,317Z" transform="translate(-6.28 -12.78)"/><path class="cls-10" d="M420.13,348.44a101.05,101.05,0,0,1-27.4,11.49c-4.3,1.09-8.45-5.44-6.48-9.53,10.89-22.42,17-42.8,22.39-67.17s3.61-50-6.29-72.93-33.24-37.87-56.4-43.46a57.58,57.58,0,0,1-22.66,11.39c-2.18.53-4.65.91-6.63-.23-2.35-1.39-3.12-4.54-2.5-7.18a16.63,16.63,0,0,1,3.37-6.58,85.39,85.39,0,0,1-46.1,12.65c7.21-3.47,16.71-4.38,23.49-7.7,2.5-1.24,5-2.67,6.43-5.07,3.13-5.33-.62-11.29-5.38-15.85,8.06,5,20.68,1.26,26.72-6.75,7.07-9.3,7.85-21.8,8.39-33.42a59.45,59.45,0,0,0,7.4,12.31c8.77-4,12.2-13.8,16.53-22.84,2.16,1.47,4.32,2.94,6.41,4.44A207.26,207.26,0,0,1,405,143.74c21.16,27.49,34.62,61.29,35.57,95.91a139.33,139.33,0,0,1-5.18,41.82c-3.82,13.53-10.06,25.59-16.21,38.2.3-.24.62-.53,1-.76-5,10.16-10,20.3-15,30.46A96.91,96.91,0,0,0,420.13,348.44Z" transform="translate(-6.28 -12.78)"/><path class="cls-14" d="M390.48,190.45c-3.38,8.07-8.59,16.86-17.28,18.2-6.22,1-12.44-2.52-16.49-7.31a56.26,56.26,0,0,1-8.46-13.56c-12.2-26.9-5.85-63.14,9-86.65,5.41-8.62,13.46-17,23.61-17,8.51,0,16,6.35,19.66,14s4.23,16.43,4.1,24.9c0,3.5-.24,7-.53,10.54A183,183,0,0,1,390.48,190.45Z" transform="translate(-6.28 -12.78)"/><path class="cls-15" d="M275.82,271.41a20.42,20.42,0,0,0,15.67,1.77c5.13-1.69,9.41-6.23,10.07-11.59.39-3.09-.58-6.53-3.13-8.32-2.39-1.67-5.59-1.57-8.44-1C284.59,253.42,264.74,265.52,275.82,271.41Z" transform="translate(-6.28 -12.78)"/><path class="cls-16" d="M293.89,254c0-.7-.4-1.25-1.47-1.34a12.91,12.91,0,0,0-5,.91,15.71,15.71,0,0,0-6.09,3.52,3.18,3.18,0,0,0-1.15,2.88c.43,1.54,2.71,1.85,4.09,1.7a13.61,13.61,0,0,0,5.71-2.4C291.66,258.19,293.91,256.21,293.89,254Z" transform="translate(-6.28 -12.78)"/><path class="cls-4" d="M390.48,190.45c-3.38,8.07-8.59,16.86-17.28,18.2-6.22,1-12.44-2.52-16.49-7.31a56.26,56.26,0,0,1-8.46-13.56c6.1,2.61,13.41,8.07,18.16,7.15,6.06-1.24,10.13-6.86,13.32-12.22,9.42-15.67,17.13-32.26,24.33-49.11A183,183,0,0,1,390.48,190.45Z" transform="translate(-6.28 -12.78)"/><path class="cls-17" d="M241.49,95.51A95.18,95.18,0,0,0,244,111.86c8.16-11.61,11.56-25.47,14-39.22,2.26-12.72,3.84-25.55,5.41-38.38.54-4.33,1.05-10-1.68-13.74-2.89-4-7.6-4.52-10-.14-5.19,9.47-5.93,23.25-7.41,33.79C242.31,68,240.58,81.76,241.49,95.51Z" transform="translate(-6.28 -12.78)"/><path class="cls-18" d="M258.67,22.17a7.39,7.39,0,0,0,.38-2.63,4.33,4.33,0,0,0-1.65-2.31c-.9-.71-2.73-.51-3.7-.09a6.92,6.92,0,0,0-3,2.17,17.59,17.59,0,0,0-1.14,2.25c-.64,1.56-1.57,3.34-1.59,5.06a5.89,5.89,0,0,1-.08,1.32,6.19,6.19,0,0,0-.18,1.13,10.71,10.71,0,0,1,.07,1.13c0,.44-.14.88-.18,1.32-.07.82,0,1.63-.08,2.45a14.66,14.66,0,0,0,0,2.65c0,.88,2.84.78,3.24.23a22.21,22.21,0,0,0,1.71-2.51c.49-.88,1.14-1.66,1.61-2.54a20.49,20.49,0,0,1,1.39-2.17,8.65,8.65,0,0,0,.73-1.46c.2-.42.52-.69.73-1.08A19.87,19.87,0,0,0,258.67,22.17Z" transform="translate(-6.28 -12.78)"/><path class="cls-19" d="M387.88,156.8a.59.59,0,0,0-.33-.45l-.22-.13c.1.05.11,0,0-.05a2.09,2.09,0,0,0-.37-.26.45.45,0,0,0,0-.11,2.93,2.93,0,0,0-.59-.48,8.13,8.13,0,0,0-.82-.45l-.89-.43c.42-1.2.89-2.38,1.27-3.6A153.12,153.12,0,0,0,390.72,131a5.47,5.47,0,0,0,1.46-.35,3.19,3.19,0,0,0,1-.32l.46-.16c.2-.08.5-.17.44-.44s-.52-.38-.73-.42l-.72-.12h0a5.53,5.53,0,0,0-1.19-.21l-.37,0c.9-5.58,1.57-11.2,1.92-16.88,0-.14-.58-.17-.6,0a167.37,167.37,0,0,1-3,16.75,24.75,24.75,0,0,0-3.79.3,12.06,12.06,0,0,0-1.86.47,2.87,2.87,0,0,0-1.34.53l.34-.19-.1,0c-.2.06-.42.17-.32.4s.63.29.83.32c-.77-.11-.21,0,0,0a5,5,0,0,0,.66.1l.86.11a21.24,21.24,0,0,0,2.39.23c.61,0,1.21,0,1.82,0a172.54,172.54,0,0,1-5.77,19c-.37,1-.8,2-1.19,3l-1-.44c-.45-.19-.89-.39-1.34-.56-.26-.1-.54-.16-.8-.25a8.28,8.28,0,0,1-.89-.23c-.25-.11-2.08-.31-2,.24,0-.09-.27.47-.28.5a.67.67,0,0,0,0,.57,5.18,5.18,0,0,0,.32.86,5.89,5.89,0,0,0,1.66,1.6,6.13,6.13,0,0,0,1.22.7,11.92,11.92,0,0,0,1.37.61l.25.07c-1.12,2.76-2.31,5.49-3.54,8.19l-1-.35a4.86,4.86,0,0,0-1.37-.23,3.62,3.62,0,0,0-.93,0,.73.73,0,0,0-.38.14.18.18,0,0,0-.09.13.21.21,0,0,0,.13.17c-.59.69-.73-.06-.68.34,0,0,0,.08,0,.11a1.43,1.43,0,0,0,.13.49,2.6,2.6,0,0,0,.68.76,4.82,4.82,0,0,0,1.18.64,8.16,8.16,0,0,0,1.17.33c-.16.35-.32.72-.49,1.07q-2.21,4.54-4.7,8.95c-1.41,2.48-3.1,4.81-3.82,7.61-.15.57,1.94.42,2.21.16,4.72-4.57,7.62-11.71,10.39-17.6a.36.36,0,0,1,0-.09c.28-.06.55-.17.63-.42l.23-.39a.65.65,0,0,0-.32-.44q2-4.41,3.7-8.94c.25,0,.49,0,.74,0a10.52,10.52,0,0,0,2.63,0c.3,0,.78-.15.87-.5A1.13,1.13,0,0,0,387.88,156.8Z" transform="translate(-6.28 -12.78)"/><path class="cls-4" d="M316.32,313.86a429.62,429.62,0,0,1-100.09,77.07c2-3.89,4.05-7.66,6.35-11.4,2.55-4.27,11.19-21.12,17.19-26,0-.05.06,0,.08-.07,1.37-.6,2.79-1.18,4.29-1.72A294.16,294.16,0,0,0,316.32,313.86Z" transform="translate(-6.28 -12.78)"/><path class="cls-20" d="M181.88,204.43c4.44-2.46,9-4.82,13.59-7.14.55-.27-1.13-.52-1.4-.42a118.92,118.92,0,0,0-14.58,6.39c-1.62-.73-3.28-1.42-4.88-2.1a2.88,2.88,0,0,0-1.72-.08c-.28.07-.78.29-.36.58,1.48,1,2.92,2.05,4.46,3a150.53,150.53,0,0,0-15.63,9.88c-.21-.41-.4-.83-.62-1.24A11.66,11.66,0,0,0,160,212c-.37-.5-.82-.95-1.22-1.42a2.2,2.2,0,0,0-1.6-.41c-.25,0-1.3.05-1.28.48s0,.91.07,1.36a6.79,6.79,0,0,0,.42,1.3c.33,1,.69,1.89,1.11,2.82.14.31.32.61.45.92-4.7,3.55-9.24,7.29-13.49,11.2-3.5,3.23-7,6.7-10.35,10.31l0-.05a.9.9,0,0,0-.46-.22,2.86,2.86,0,0,0-.65-.06c-.14,0-.94.05-.89.33s.11.55.17.83c-.06.07-.14.13-.14.24a1.57,1.57,0,0,0,.08.31c0,.18.09.36.13.55a143.06,143.06,0,0,0-10.14,12.48,26.06,26.06,0,0,1-3.08-2.57,2.6,2.6,0,0,0-1.89-.42c-.24,0-1.4.16-1.09.63a29.37,29.37,0,0,0,3.19,4.32,8.82,8.82,0,0,0,.91.8,87.84,87.84,0,0,0-10.38,20.23c0,.06.26.07.3,0,4.23-6.26,8.36-12.48,12.67-18.54a8,8,0,0,0,2.69.95l-.9-.21a13.15,13.15,0,0,0,2.22.57c.19,0,1.66.1,1.63-.39a1.1,1.1,0,0,0-.06-.37c0-.08-.25-.28-.23-.33l-.08-.21a10.41,10.41,0,0,0-2-1.63l-1.37-1q4.3-5.94,9-11.6a4.77,4.77,0,0,0,.91.94,1.48,1.48,0,0,0,.85.17,1.84,1.84,0,0,0,.41,0c.09,0,.27-.06.32-.15a.82.82,0,0,0,.12-.34c0-.12,0-.23,0-.35a3.19,3.19,0,0,0,0-.69,5.78,5.78,0,0,0-.24-.7c-.08-.23-.17-.46-.25-.7a3.76,3.76,0,0,0-.2-.46A132.26,132.26,0,0,1,159,219.1a2.22,2.22,0,0,0,.25.35,4.44,4.44,0,0,1,.54.6,8,8,0,0,0,1.26,1.41,1.81,1.81,0,0,0,1.27.33c.24,0,1,0,1-.38a3.46,3.46,0,0,0,0-1.36,1.79,1.79,0,0,1,0-.61,1.78,1.78,0,0,0-.12-.68,12.53,12.53,0,0,0-.86-2.15c5.49-3.88,11.17-7.41,17-10.74a46.6,46.6,0,0,0,5.27,2.21,2.9,2.9,0,0,0,1.49.1c.13,0,.86-.22.59-.47A21.88,21.88,0,0,0,181.88,204.43Z" transform="translate(-6.28 -12.78)"/><path class="cls-21" d="M247.49,740.92c-13.8,5.27-30.32,4.61-44.9-.09-28.69-9.27-60.76-32.27-64.1-62.25a44.12,44.12,0,0,1,.83-13.93c1.72-8.2,5.46-16.14,9.3-23.66,25-49.5,58.6-90,111.16-116.1,8.61-4.31,18.25-8.06,28.25-6.71,17.37,2.34,22.79,20.07,22.31,33.77-.43,11.61-4.36,23.7-8.39,34.46-1.09,3-2.18,6-3.23,8.75-13,35.07-19.36,72.35-25.86,109.36C269.91,721.33,265,734.22,247.49,740.92Z" transform="translate(-6.28 -12.78)"/><path class="cls-22" d="M621.67,727c-19.94,14.32-45.86,9.44-66.49-2.34a224.09,224.09,0,0,1-44.13-33.16c-20.59-19.77-37.27-43.69-45.2-69.74-6-19.54-7-54.13,20.29-57.1,11.54-1.25,22.92,3.43,33.6,8.2,17.22,7.7,35.62,20.67,53.69,25.41,3.43.88,6.88,1.56,10.36,2.16,15.59,2.67,31.7,3.06,47,8.24,19.42,6.56,29,24.13,29.07,43.36C659.88,681.05,645.36,710,621.67,727Z" transform="translate(-6.28 -12.78)"/><path class="cls-23" d="M780.69,465.92c-9.94,4.66-16.15,1.81-26.42-1.77-27.46-9.51-55.25-18.42-83.9-23.34s-58.1-5.8-86,.4c3.52-.79,12.15,1.42,14.9,3.74,7,5.74-8,10.6-12.23,12.59-17.89,8.46-38.5,14.1-58.7,9.51-16-3.62-26.93-17.67-29-33.14-.19-1.36-.33-2.71-.41-4.08-2.43-30.86,12.21-67.56,28-92.47a173.92,173.92,0,0,1,26.85-32.93c6.7-6.41,14.72-13.53,23-17.86,18-9.37,7.75,24.69,3.49,32.37a23.43,23.43,0,0,1,5.11-5.9c4.24-3.7,10-7,15.44-9.83,1.28-.63,2.51-1.28,3.67-1.86,2.24-1.09,4.27-2,5.94-2.88a138.83,138.83,0,0,1,22.42-8.8,116.88,116.88,0,0,1,13.59-3.18c24.42-4.18,55.67,1.08,79.34,8.79,5.6,1.79,12.23,5.69,11.32,11.27-.7,4.16-5.32,6.32-9.39,7.72a220.46,220.46,0,0,1-31.64,8.22c28.31-5.14,58.59,19.79,74.83,40.38,17,21.62,26.57,48.67,25.82,75.65a56.34,56.34,0,0,1-.48,5.7C795,454,790.66,461.21,780.69,465.92Z" transform="translate(-6.28 -12.78)"/><path class="cls-24" d="M650.42,417.21c-3.16-2.48-7.46-6.24-10.6-8.76a148,148,0,0,0-35.26-107.1c2.24-1.09,4.27-2,5.94-2.88a138.83,138.83,0,0,1,22.42-8.8.67.67,0,0,1,.25.15c2.38,1.81,4,4.47,5.51,7.13A151.32,151.32,0,0,1,650.42,417.21Z" transform="translate(-6.28 -12.78)"/><path class="cls-10" d="M780.69,465.92c-9.94,4.66-16.15,1.81-26.42-1.77-27.46-9.51-55.25-18.42-83.9-23.34s-58.1-5.8-86,.4c3.52-.79,12.15,1.42,14.9,3.74,7,5.74-8,10.6-12.23,12.59-17.89,8.46-38.5,14.1-58.7,9.51-16.63-3.75-30.42-21.42-30.3-38.7.06-9.75,8.77-18.78,13.73-26.72a308.15,308.15,0,0,1,21.44-30.19,153.59,153.59,0,0,0-21.07,43.95,16.17,16.17,0,0,0-1,6.86c.33,2.31,1.85,4.6,4.12,5.13,2.71.63,5.28-1.33,7.37-3.17,18.67-16.32,36.69-34.79,56.61-49.54,9.31-6.89,22.58-8.28,33.75-9.89a157.06,157.06,0,0,0-49.84,28c-2.1,1.76-4.31,3.86-4.5,6.58-.67,9.58,43.83,5.86,50.68,5.67,17.37-.49,34.7-1.75,52.07-2.17,29.59-.76,59.94,1,87.2,12.45a117,117,0,0,0-38.41-45.48c12.28,8.18,23.11,16.89,32.88,28.43,10.23,12.08,17,28.69,28.52,39.36,5.11,4.75,11.83,8,18.78,7.8a17.79,17.79,0,0,0,5.84-1.16C795,454,790.66,461.21,780.69,465.92Z" transform="translate(-6.28 -12.78)"/><path class="cls-4" d="M247.49,740.92c-13.8,5.27-30.32,4.61-44.9-.09-28.69-9.27-60.76-32.27-64.1-62.25a44.12,44.12,0,0,1,.83-13.93,36.57,36.57,0,0,0,1.93,4.79c6.37,13.09,20.51,25,32.81,32,15.29,8.8,34.28,12.13,50.8,6,17.4-6.54,29.54-22.32,39-38.34,15.41-26.17,26.18-54.73,38.1-82.69-1.09,3-2.18,6-3.23,8.75-13,35.07-19.36,72.35-25.86,109.36C269.91,721.33,265,734.22,247.49,740.92Z" transform="translate(-6.28 -12.78)"/><path class="cls-4" d="M621.67,727c-19.94,14.32-45.86,9.44-66.49-2.34a224.09,224.09,0,0,1-44.13-33.16c3.66-2,11.49,3.74,15.78,6.62,11.37,7.73,23.59,14.49,37,17.81,35.79,8.87,61.75-15.88,73.92-47.85,1.2-3.14,15-35.7,18.45-15.07.49,2.86-.12,5.78-.49,8.67-1,7.33,1.72,12.46-.87,20.06A92.91,92.91,0,0,1,621.67,727Z" transform="translate(-6.28 -12.78)"/><path class="cls-25" d="M362.86,415.87a10.14,10.14,0,0,0-1.13-1.46c-.28-.29-.23-.43-.42-.78l-.34-.39c-.13,0-.16-.09-.11-.23-.57-1.33-2-2.33-3-3.3-.22-.21-.47-.4-.69-.61A64.59,64.59,0,0,0,366.27,397c.44-.76-2.42-.78-2.89-.35-3.32,3.06-6.61,6.18-9.93,9.27a13.13,13.13,0,0,0-2.12-1.43,13.25,13.25,0,0,1-1.45-.87,6.67,6.67,0,0,1-1.47-1.05c-.35-.39-2.64-.46-2.32.16.08.18.17.35.26.52a2.49,2.49,0,0,1-.19.62,2.77,2.77,0,0,1,.1.5c0,.16-.09.32-.14.48a3.73,3.73,0,0,0,.5,2,11.08,11.08,0,0,0,2.35,3.19,176.47,176.47,0,0,1-14,11.63,160.47,160.47,0,0,1-24,14.53l-.36-.74c-.2-.43-2.1-.32-2,0l.48,1.57c-1.64.78-3.27,1.58-4.93,2.3-4,1.71-8.05,3.19-12.17,4.56-.53-1.23-1.06-2.46-1.62-3.65a24,24,0,0,0-3.36-5.7c-.44-.49-2.46-.69-2.74.06a12,12,0,0,0-.18,5.62,31.88,31.88,0,0,0,1.29,5.71,163.36,163.36,0,0,1-22.86,4.76c0-.05,0-.09,0-.13,0-.93,0-1.83-.1-2.76-.05-.49-.09-1-.15-1.48a7.83,7.83,0,0,0-.37-1.5c-.2-.68-2.38-.73-2.63-.06a9.29,9.29,0,0,0-.46,1.47c-.09.49-.16,1-.23,1.47-.15.92-.22,1.82-.28,2.75,0,.27,0,.54,0,.81a159.27,159.27,0,0,1-28.46.46c-.15,0-.36.08-.11.12a141.41,141.41,0,0,0,28.6,1.26.34.34,0,0,0,0,.1,30.11,30.11,0,0,0,.57,3c.14.68,2.45.73,2.63.07.25-1,.58-2,.75-2.95,0-.18,0-.37,0-.55a151,151,0,0,0,24.13-4.1A29.7,29.7,0,0,0,288,451.5a12.94,12.94,0,0,0,2,2.57c.9.86,1.5,2,2.43,2.81.38.34,2.54.76,2.66-.06s-.28-1.8-.23-2.71a9.88,9.88,0,0,0-.23-2.6,37.92,37.92,0,0,0-1.37-4.64c4-1.22,8.05-2.56,12-4.12,1.7-.67,3.36-1.43,5-2.16.22.57.48,1.14.72,1.7a7.69,7.69,0,0,0,.73,1.15c.26.38.52.77.79,1.15.15.22,1.44.33,1.4,0l-.11-1.1a5.5,5.5,0,0,0-.17-1.16,22.12,22.12,0,0,0-.8-2.29l-.21-.43A153.86,153.86,0,0,0,339.69,424,139.63,139.63,0,0,0,353,413.22a10.89,10.89,0,0,0,1.33.76c.88.36,1.8.78,2.64,1.22a23.47,23.47,0,0,0,2.89,1.2,4.36,4.36,0,0,0,2.18.16C362.28,416.51,363.14,416.3,362.86,415.87Z" transform="translate(-6.28 -12.78)"/><path class="cls-26" d="M135.24,246.93c4.63,3.72,11.16,3.8,17.07,3.15a96.34,96.34,0,0,0,56.11-26.46c13.89-13.52,9.83-35.29-10.4-38.54-17.54-2.81-38.15,7.55-50,19.73C137.27,215.86,117.69,232.84,135.24,246.93Z" transform="translate(-6.28 -12.78)"/><path class="cls-27" d="M354.11,119.32c-.71,4.7-.35,10.15,3.25,13.26,4.33,3.75,11.08,2.24,16.13-.46a45,45,0,0,0,17.17-16.31c2.66-4.42,4.58-9.5,4.15-14.64s-3.65-10.25-8.58-11.78C369.47,84.17,356.1,106,354.11,119.32Z" transform="translate(-6.28 -12.78)"/><path class="cls-28" d="M51.69,457c-2.13,3.35-4.06,8-1.49,11,2.86,3.38,8.32,1.48,12.16-.71a375,375,0,0,0,72.24-53.68c3.13-3,6.48-7.09,5-11.13-6.66-17.76-40.76,6.89-48.17,12.14A150.76,150.76,0,0,0,51.69,457Z" transform="translate(-6.28 -12.78)"/><path class="cls-29" d="M180,601.61c-2.31,4-4.15,9.7-.75,12.88,2.5,2.33,6.43,1.86,9.76,1.11a124.09,124.09,0,0,0,65.75-39.38c4.1-4.73,7.92-9.92,9.68-15.92,4-13.64-3.7-24.95-17.66-20.45-12.08,3.89-23.36,11.51-32.15,20.57C202.23,573.17,188.92,586,180,601.61Z" transform="translate(-6.28 -12.78)"/><path class="cls-30" d="M477.7,626.16c4.71,4,10.49,5.07,16.67-.41,12.24-10.86,11.14-33.67,3.4-46.51-2.48-4.11-6-8-10.65-9.13-17.25-4.3-22.66,21.25-21,33.47C467.09,610.54,471.47,620.88,477.7,626.16Z" transform="translate(-6.28 -12.78)"/></g></g></svg>