<svg id="Capa_1" data-name="Capa 1" xmlns="http://www.w3.org/2000/svg" xmlns:xlink="http://www.w3.org/1999/xlink" viewBox="0 0 814.26 453.54"><defs><style>.cls-1{fill:none;}.cls-2{fill:#c83031;}.cls-3{fill:#ff2230;}.cls-4{fill:#8cd1f3;}.cls-5{fill:#303646;}.cls-6{fill:#80b8d3;}.cls-7{clip-path:url(#clip-path);}.cls-8{fill:#fff;opacity:0.5;}</style><clipPath id="clip-path" transform="translate(17.21 -222.16)"><path class="cls-1" d="M118.41,255.86S4.72,326.2,4.27,361.22C3.64,409.29,181.15,536.79,448.65,513.8S765.8,412.25,765.8,412.25s41.74-168.44,28.73-183.14c0,0-81-17-94.46,2.19-7.91,11.26-64,100.63-64,100.63S265.63,194.7,118.41,255.86Z"/></clipPath></defs><path class="cls-2" d="M200.25,358.08a6.82,6.82,0,0,1-.72-11.79c39.18-26,188.63-124.09,213.8-122.77,21.68,1.13,61.88,11.62,80.84,16.85a6.45,6.45,0,0,1,2.93,10.71c-29.17,30.23-133.72,138.47-135.53,138.67C359.59,390,260.49,388,200.25,358.08Z" transform="translate(17.21 -222.16)"/><polygon class="cls-3" points="472.79 57.16 506.91 24.54 500.2 22.3 466.39 54.93 472.79 57.16"/><path class="cls-4" d="M118.41,255.86S4.72,326.2,4.27,361.22C3.64,409.29,181.15,536.79,448.65,513.8S765.8,412.25,765.8,412.25s41.74-168.44,28.73-183.14c0,0-81-17-94.46,2.19-7.91,11.26-64,100.63-64,100.63S265.63,194.7,118.41,255.86Z" transform="translate(17.21 -222.16)"/><path class="cls-5" d="M116.54,267.77c-14.29,7.39-46.32,36.8-46.32,36.8a2.65,2.65,0,0,0,.23,4.43c10.18,6,42,23,79.09,26.63a23.14,23.14,0,0,0,25.09-19l1.76-10.09a16.51,16.51,0,0,0-5.75-15.6c-8-6.63-22-16.95-38.89-24.09C127.66,265.12,120.48,265.73,116.54,267.77Z" transform="translate(17.21 -222.16)"/><path class="cls-6" d="M203,288.14s-25,111.68-20.81,118.25,61.47,18.18,72.5,15.73,23.46-123,23.46-123S213.51,280.71,203,288.14Z" transform="translate(17.21 -222.16)"/><path class="cls-5" d="M221.06,312.7l-3.3,20.55a9.61,9.61,0,0,0,7.46,10.93l13.3,2.89A9.63,9.63,0,0,0,250,339.3l3.74-21.75a9.61,9.61,0,0,0-8.31-11.18l-13.74-1.69A9.62,9.62,0,0,0,221.06,312.7Z" transform="translate(17.21 -222.16)"/><rect class="cls-5" x="248.01" y="369.08" width="16.08" height="3.64" transform="translate(-143.49 320.33) rotate(-77.76)"/><path class="cls-5" d="M316.25,330.33,313,350.88a9.61,9.61,0,0,0,7.46,10.93l13.3,2.88a9.61,9.61,0,0,0,11.52-7.77L349,335.17A9.63,9.63,0,0,0,340.67,324l-13.74-1.69A9.63,9.63,0,0,0,316.25,330.33Z" transform="translate(17.21 -222.16)"/><path class="cls-5" d="M368.65,341.7l-3.3,20.55a9.63,9.63,0,0,0,7.46,10.93l13.3,2.88a9.62,9.62,0,0,0,11.52-7.77l3.75-21.75a9.63,9.63,0,0,0-8.31-11.18l-13.74-1.69A9.63,9.63,0,0,0,368.65,341.7Z" transform="translate(17.21 -222.16)"/><path class="cls-5" d="M421.05,353.06l-3.3,20.56a9.63,9.63,0,0,0,7.46,10.93l13.3,2.88A9.62,9.62,0,0,0,450,379.66l3.75-21.75a9.62,9.62,0,0,0-8.31-11.18L431.73,345A9.62,9.62,0,0,0,421.05,353.06Z" transform="translate(17.21 -222.16)"/><path class="cls-5" d="M473.45,364.43,470.15,385a9.61,9.61,0,0,0,7.46,10.93l13.3,2.89A9.62,9.62,0,0,0,502.43,391l3.75-21.75a9.62,9.62,0,0,0-8.31-11.18l-13.74-1.69A9.62,9.62,0,0,0,473.45,364.43Z" transform="translate(17.21 -222.16)"/><path class="cls-5" d="M525.85,375.8l-3.3,20.55A9.61,9.61,0,0,0,530,407.28l13.3,2.89a9.63,9.63,0,0,0,11.52-7.77l3.75-21.75a9.63,9.63,0,0,0-8.31-11.19l-13.74-1.68A9.62,9.62,0,0,0,525.85,375.8Z" transform="translate(17.21 -222.16)"/><polygon class="cls-5" points="787.16 13.68 760.76 181.63 770.99 183.85 797.07 15.83 787.16 13.68"/><g class="cls-7"><path class="cls-8" d="M24.67,312.47s34.57,7.5,31.26,54.84c-3.11,44.36-52.52,45.63-52.52,45.63l-20.62-70.86,41.88-29.61Z" transform="translate(17.21 -222.16)"/></g><path class="cls-2" d="M285.35,400.2a8.21,8.21,0,0,0-6.67,12.55c29.92,48,144.67,229.89,172.89,241,24.29,9.56,73.53,18.13,96.91,21.85A7.76,7.76,0,0,0,557,665.34C540.15,617.69,479.64,447.06,477.76,446,475.7,444.73,366.24,397.44,285.35,400.2Z" transform="translate(17.21 -222.16)"/></svg>